<svg width="258" height="257" viewBox="0 0 258 257" fill="none" xmlns="http://www.w3.org/2000/svg">
<path opacity="0.6" d="M78.4759 15.2483C82.6868 15.2483 86.1003 11.8348 86.1003 7.62414C86.1003 3.41344 82.6868 0 78.4759 0C74.2651 0 70.8516 3.41344 70.8516 7.62414C70.8516 11.8348 74.2651 15.2483 78.4759 15.2483Z" fill="#FFDAD6"/>
<path opacity="0.6" d="M208.476 45.2483C212.687 45.2483 216.1 41.8348 216.1 37.6241C216.1 33.4134 212.687 30 208.476 30C204.265 30 200.852 33.4134 200.852 37.6241C200.852 41.8348 204.265 45.2483 208.476 45.2483Z" fill="#D13D41"/>
<path opacity="0.6" d="M18.4759 55.2483C22.6868 55.2483 26.1003 51.8348 26.1003 47.6241C26.1003 43.4134 22.6868 40 18.4759 40C14.2651 40 10.8516 43.4134 10.8516 47.6241C10.8516 51.8348 14.2651 55.2483 18.4759 55.2483Z" fill="#FFDAD6"/>
<path opacity="0.5" d="M252.5 256.297C255.067 256.297 257.148 254.215 257.148 251.648C257.148 249.081 255.067 247 252.5 247C249.933 247 247.852 249.081 247.852 251.648C247.852 254.215 249.933 256.297 252.5 256.297Z" fill="#FFDAD6"/>
<path opacity="0.5" d="M182.5 236.297C185.067 236.297 187.148 234.215 187.148 231.648C187.148 229.081 185.067 227 182.5 227C179.933 227 177.852 229.081 177.852 231.648C177.852 234.215 179.933 236.297 182.5 236.297Z" fill="#FFDAD6"/>
<path d="M232.5 196.297C235.067 196.297 237.148 194.215 237.148 191.648C237.148 189.081 235.067 187 232.5 187C229.933 187 227.852 189.081 227.852 191.648C227.852 194.215 229.933 196.297 232.5 196.297Z" fill="#D13D41"/>
<path opacity="0.25" d="M5.50002 207.297C8.0673 207.297 10.1485 205.215 10.1485 202.648C10.1485 200.081 8.0673 198 5.50002 198C2.93275 198 0.851562 200.081 0.851562 202.648C0.851562 205.215 2.93275 207.297 5.50002 207.297Z" fill="#FFDAD6"/>
<path d="M45.5 227.297C48.0673 227.297 50.1485 225.215 50.1485 222.648C50.1485 220.081 48.0673 218 45.5 218C42.9327 218 40.8516 220.081 40.8516 222.648C40.8516 225.215 42.9327 227.297 45.5 227.297Z" fill="#D13D41"/>
<path d="M128.852 247C186.289 247 232.852 200.438 232.852 143C232.852 85.5624 186.289 39 128.852 39C71.4139 39 24.8516 85.5624 24.8516 143C24.8516 200.438 71.4139 247 128.852 247Z" fill="#D13D41"/>
<path d="M118.469 183C116.108 183.004 113.81 182.238 111.921 180.819L111.804 180.731L87.143 161.82C86.0008 160.943 85.0423 159.848 84.3222 158.599C83.602 157.35 83.1344 155.971 82.9459 154.541C82.7575 153.11 82.8519 151.657 83.2238 150.263C83.5957 148.87 84.2377 147.563 85.1134 146.418C85.989 145.273 87.0811 144.312 88.3271 143.591C89.5732 142.869 90.9489 142.4 92.3757 142.211C93.8025 142.022 95.2525 142.117 96.6428 142.49C98.0331 142.862 99.3365 143.506 100.479 144.384L116.452 156.662L154.199 107.3C155.074 106.156 156.166 105.195 157.411 104.474C158.657 103.752 160.032 103.283 161.458 103.095C162.884 102.906 164.334 103 165.723 103.373C167.113 103.746 168.416 104.389 169.558 105.266L169.561 105.269L169.327 105.595L169.567 105.269C171.87 107.043 173.377 109.661 173.757 112.548C174.137 115.435 173.359 118.355 171.594 120.668L127.195 178.703C126.168 180.04 124.848 181.122 123.336 181.865C121.824 182.608 120.162 182.992 118.479 182.987L118.469 183Z" fill="white"/>
</svg>
