<svg width="423" height="423" viewBox="0 0 423 423" fill="none" xmlns="http://www.w3.org/2000/svg">
<path d="M423 323.509H0V323.72H423V323.509Z" fill="#EBEBEB"/>
<path d="M200.514 285.779H37.1521C34.4897 285.779 32.3231 283.612 32.3231 280.95V51.3183C32.3231 48.656 34.4897 46.4894 37.1521 46.4894H200.514C203.175 46.4894 205.342 48.656 205.342 51.3183V280.95C205.342 283.612 203.175 285.779 200.514 285.779ZM37.1521 46.7017C34.6056 46.7017 32.5346 48.7727 32.5346 51.3192V280.951C32.5346 283.497 34.6056 285.568 37.1521 285.568H200.514C203.059 285.568 205.13 283.497 205.13 280.951V51.3183C205.13 48.7727 203.059 46.7009 200.514 46.7009L37.1521 46.7017Z" fill="#EBEBEB"/>
<path d="M383.5 285.779H220.139C217.477 285.779 215.311 283.612 215.311 280.95V51.3183C215.311 48.656 217.478 46.4894 220.139 46.4894H383.5C386.163 46.4894 388.329 48.656 388.329 51.3183V280.95C388.33 283.612 386.163 285.779 383.5 285.779ZM220.139 46.7017C217.594 46.7017 215.523 48.7727 215.523 51.3192V280.951C215.523 283.497 217.594 285.568 220.139 285.568H383.5C386.047 285.568 388.118 283.497 388.118 280.951V51.3183C388.118 48.7727 386.047 46.7009 383.5 46.7009L220.139 46.7017Z" fill="#EBEBEB"/>
<path d="M380.616 337.126H358.623V337.337H380.616V337.126Z" fill="#EBEBEB"/>
<path d="M301.199 339.422H263.106V339.633H301.199V339.422Z" fill="#EBEBEB"/>
<path d="M357.776 329.27H306.346V329.481H357.776V329.27Z" fill="#EBEBEB"/>
<path d="M60.6531 330.691H44.3803V330.903H60.6531V330.691Z" fill="#EBEBEB"/>
<path d="M114.962 330.691H68.1851V330.903H114.962V330.691Z" fill="#EBEBEB"/>
<path d="M206.537 334.264H143.538V334.475H206.537V334.264Z" fill="#EBEBEB"/>
<path d="M57.0543 261.433H39.1174V323.509H57.0543V261.433Z" fill="#FAFAFA"/>
<path d="M72.762 275.05H54.8251V323.509H72.762V275.05Z" fill="#FAFAFA"/>
<path d="M84.2311 235.116H66.2943V323.509H84.2311V235.116Z" fill="#FAFAFA"/>
<path d="M96.1513 163.45H78.2144V323.509H96.1513V163.45Z" fill="#FAFAFA"/>
<path d="M140.516 175.908H92.384V323.509H140.516V175.908Z" fill="#FAFAFA"/>
<path d="M327.634 323.509H348.126V281.024H327.634V323.509Z" fill="#FAFAFA"/>
<path d="M309.687 323.509H330.18V290.342H309.687V323.509Z" fill="#FAFAFA"/>
<path d="M296.583 323.509H317.076V263.011H296.583V323.509Z" fill="#FAFAFA"/>
<path d="M282.965 323.509H303.458V213.961H282.965V323.509Z" fill="#FAFAFA"/>
<path d="M293.985 189.684H231.1V323.509H293.985V189.684Z" fill="#F0F0F0"/>
<path d="M287.996 195.293H285.001V211.579H287.996V195.293Z" fill="#F5F5F5"/>
<path d="M287.996 220.76H285.001V237.046H287.996V220.76Z" fill="#F5F5F5"/>
<path d="M287.996 246.227H285.001V262.513H287.996V246.227Z" fill="#F5F5F5"/>
<path d="M287.996 271.695H285.001V287.98H287.996V271.695Z" fill="#F5F5F5"/>
<path d="M287.996 297.162H285.001V313.447H287.996V297.162Z" fill="#F5F5F5"/>
<path d="M277.386 195.293H274.391V211.579H277.386V195.293Z" fill="#F5F5F5"/>
<path d="M277.386 220.76H274.391V237.046H277.386V220.76Z" fill="#F5F5F5"/>
<path d="M277.386 246.227H274.391V262.513H277.386V246.227Z" fill="#F5F5F5"/>
<path d="M277.386 271.695H274.391V287.98H277.386V271.695Z" fill="#F5F5F5"/>
<path d="M277.386 297.162H274.391V313.447H277.386V297.162Z" fill="#F5F5F5"/>
<path d="M266.775 195.293H263.78V211.579H266.775V195.293Z" fill="#F5F5F5"/>
<path d="M266.775 220.76H263.78V237.046H266.775V220.76Z" fill="#F5F5F5"/>
<path d="M266.775 246.227H263.78V262.513H266.775V246.227Z" fill="#F5F5F5"/>
<path d="M266.775 271.695H263.78V287.98H266.775V271.695Z" fill="#F5F5F5"/>
<path d="M266.775 297.162H263.78V313.447H266.775V297.162Z" fill="#F5F5F5"/>
<path d="M256.165 195.293H253.17V211.579H256.165V195.293Z" fill="#F5F5F5"/>
<path d="M256.165 220.76H253.17V237.046H256.165V220.76Z" fill="#F5F5F5"/>
<path d="M256.165 246.227H253.17V262.513H256.165V246.227Z" fill="#F5F5F5"/>
<path d="M256.165 271.695H253.17V287.98H256.165V271.695Z" fill="#F5F5F5"/>
<path d="M256.165 297.162H253.17V313.447H256.165V297.162Z" fill="#F5F5F5"/>
<path d="M245.554 195.293H242.559V211.579H245.554V195.293Z" fill="#F5F5F5"/>
<path d="M245.554 220.76H242.559V237.046H245.554V220.76Z" fill="#F5F5F5"/>
<path d="M245.554 246.227H242.559V262.513H245.554V246.227Z" fill="#F5F5F5"/>
<path d="M245.554 271.695H242.559V287.98H245.554V271.695Z" fill="#F5F5F5"/>
<path d="M245.554 297.162H242.559V313.447H245.554V297.162Z" fill="#F5F5F5"/>
<path opacity="0.5" d="M231.1 189.684H244.057L249.691 323.509H231.1V189.684Z" fill="#E0E0E0"/>
<path d="M200.187 137.974L237.48 145.031V323.509H200.187V137.974Z" fill="#F0F0F0"/>
<path d="M200.187 137.974H170.353V323.509H200.187V137.974Z" fill="#E6E6E6"/>
<path d="M170.352 154.298H237.48V153.347H170.352V154.298Z" fill="#E0E0E0"/>
<path d="M170.352 164.4H237.48V163.45H170.352V164.4Z" fill="#E0E0E0"/>
<path d="M170.352 174.502H237.48V173.552H170.352V174.502Z" fill="#E0E0E0"/>
<path d="M170.352 184.605H237.48V183.655H170.352V184.605Z" fill="#E0E0E0"/>
<path d="M170.352 194.707H237.48V193.757H170.352V194.707Z" fill="#E0E0E0"/>
<path d="M170.352 204.809H237.48V203.859H170.352V204.809Z" fill="#E0E0E0"/>
<path d="M170.352 214.912H237.48V213.962H170.352V214.912Z" fill="#E0E0E0"/>
<path d="M170.352 225.014H237.48V224.064H170.352V225.014Z" fill="#E0E0E0"/>
<path d="M170.352 235.116H237.48V234.166H170.352V235.116Z" fill="#E0E0E0"/>
<path d="M170.352 245.218H237.48V244.268H170.352V245.218Z" fill="#E0E0E0"/>
<path d="M170.352 255.321H237.48V254.371H170.352V255.321Z" fill="#E0E0E0"/>
<path d="M170.352 265.423H237.48V264.473H170.352V265.423Z" fill="#E0E0E0"/>
<path d="M170.352 275.525H237.48V274.575H170.352V275.525Z" fill="#E0E0E0"/>
<path d="M170.352 285.627H237.48V284.677H170.352V285.627Z" fill="#E0E0E0"/>
<path d="M170.352 295.73H237.48V294.78H170.352V295.73Z" fill="#E0E0E0"/>
<path d="M170.352 305.832H237.48V304.882H170.352V305.832Z" fill="#E0E0E0"/>
<path d="M170.352 315.934H237.48V314.984H170.352V315.934Z" fill="#E0E0E0"/>
<path d="M154.035 98.5429H122.842V323.509H154.035V98.5429Z" fill="#F0F0F0"/>
<path d="M154.035 98.5429H122.842L134.321 78.678H178.989L154.035 98.5429Z" fill="#FAFAFA"/>
<path d="M154.035 98.5429L178.989 78.678V323.509H154.035V98.5429Z" fill="#EBEBEB"/>
<path d="M178.989 109.025H122.842V110.223H178.989V109.025Z" fill="#E0E0E0"/>
<path d="M178.989 121.759H122.842V122.957H178.989V121.759Z" fill="#E0E0E0"/>
<path d="M178.989 134.492H122.842V135.69H178.989V134.492Z" fill="#E0E0E0"/>
<path d="M178.989 147.226H122.842V148.424H178.989V147.226Z" fill="#E0E0E0"/>
<path d="M178.989 159.96H122.842V161.158H178.989V159.96Z" fill="#E0E0E0"/>
<path d="M178.989 172.693H122.842V173.891H178.989V172.693Z" fill="#E0E0E0"/>
<path d="M178.989 185.427H122.842V186.625H178.989V185.427Z" fill="#E0E0E0"/>
<path d="M178.989 198.16H122.842V199.358H178.989V198.16Z" fill="#E0E0E0"/>
<path d="M178.989 210.894H122.842V212.092H178.989V210.894Z" fill="#E0E0E0"/>
<path d="M178.989 223.628H122.842V224.826H178.989V223.628Z" fill="#E0E0E0"/>
<path d="M178.989 236.361H122.842V237.559H178.989V236.361Z" fill="#E0E0E0"/>
<path d="M178.989 249.095H122.842V250.293H178.989V249.095Z" fill="#E0E0E0"/>
<path d="M178.989 261.829H122.842V263.027H178.989V261.829Z" fill="#E0E0E0"/>
<path d="M178.989 274.562H122.842V275.76H178.989V274.562Z" fill="#E0E0E0"/>
<path d="M178.989 287.297H122.842V288.494H178.989V287.297Z" fill="#E0E0E0"/>
<path d="M178.989 300.03H122.842V301.228H178.989V300.03Z" fill="#E0E0E0"/>
<path d="M178.989 312.764H122.842V313.962H178.989V312.764Z" fill="#E0E0E0"/>
<path d="M117.421 207.403H83.3699V323.51H117.421V207.403Z" fill="#F0F0F0"/>
<path d="M95.538 213.404H90.0728V232.039H95.538V213.404Z" fill="#E6E6E6"/>
<path d="M108.944 213.404H103.479V232.039H108.944V213.404Z" fill="#E6E6E6"/>
<path d="M95.538 237.536H90.0728V256.17H95.538V237.536Z" fill="#E6E6E6"/>
<path d="M108.944 237.536H103.479V256.17H108.944V237.536Z" fill="#E6E6E6"/>
<path d="M95.538 261.669H90.0728V280.303H95.538V261.669Z" fill="#E6E6E6"/>
<path d="M108.944 261.669H103.479V280.303H108.944V261.669Z" fill="#E6E6E6"/>
<path d="M95.538 285.801H90.0728V304.435H95.538V285.801Z" fill="#E6E6E6"/>
<path d="M108.944 285.801H103.479V304.435H108.944V285.801Z" fill="#E6E6E6"/>
<path d="M117.421 207.403H83.3699L91.357 199.358H125.408L117.421 207.403Z" fill="white"/>
<path d="M117.421 207.403L125.408 199.358L133.395 207.403V323.509H117.421V207.403Z" fill="#E6E6E6"/>
<path d="M211.5 361.717C302.091 361.717 375.53 357.428 375.53 352.137C375.53 346.847 302.091 342.558 211.5 342.558C120.909 342.558 47.4699 346.847 47.4699 352.137C47.4699 357.428 120.909 361.717 211.5 361.717Z" fill="#F5F5F5"/>
<path d="M244.846 96.9372H352.74C357.08 96.9372 360.598 100.456 360.598 104.796V344.279C360.598 348.619 357.08 352.137 352.74 352.137H244.846C240.506 352.137 236.987 348.619 236.987 344.279V104.796C236.987 100.456 240.506 96.9372 244.846 96.9372Z" fill="#D13D41"/>
<path d="M239.961 96.9372H347.855C352.195 96.9372 355.713 100.456 355.713 104.796V344.279C355.713 348.619 352.195 352.137 347.855 352.137H239.961C235.621 352.137 232.103 348.619 232.103 344.279V104.796C232.103 100.456 235.621 96.9372 239.961 96.9372Z" fill="#D13D41"/>
<path opacity="0.7" d="M239.961 96.9372H347.855C352.195 96.9372 355.713 100.456 355.713 104.796V344.279C355.713 348.619 352.195 352.137 347.855 352.137H239.961C235.621 352.137 232.103 348.619 232.103 344.279V104.796C232.103 100.456 235.621 96.9372 239.961 96.9372Z" fill="white"/>
<g opacity="0.9">
<path d="M256.907 96.9372H250.217V352.137H256.907V96.9372Z" fill="white"/>
<path d="M327.716 96.9372H323.613V352.137H327.716V96.9372Z" fill="white"/>
<path d="M232.103 152.367V159.057L355.713 151.396V144.706L232.103 152.367Z" fill="white"/>
<path d="M232.103 310.456V317.146H355.713V310.456H232.103Z" fill="white"/>
<path d="M232.103 185.769V189.413H355.713V185.769H232.103Z" fill="white"/>
<path d="M232.103 272.041V279.702L355.713 237.877V230.215L232.103 272.041Z" fill="white"/>
<path d="M275.423 96.9372H268.733L286.716 352.137H293.406L275.423 96.9372Z" fill="white"/>
</g>
<path d="M334.165 325.959H187.007V280.087H316.727L328.83 289.923C332.205 292.665 334.164 296.782 334.164 301.13L334.165 325.959Z" fill="#D13D41"/>
<path opacity="0.5" d="M334.165 325.959H187.007V280.087H316.727L328.83 289.923C332.205 292.665 334.164 296.782 334.164 301.13L334.165 325.959Z" fill="black"/>
<path d="M186.161 321.823C186.161 305.08 193.753 291.508 203.116 291.508H185.13C175.767 291.508 168.176 305.08 168.176 321.823C168.176 338.565 175.767 352.137 185.13 352.137H203.116C193.753 352.137 186.161 338.565 186.161 321.823Z" fill="#263238"/>
<path d="M203.116 352.137C212.48 352.137 220.071 338.565 220.071 321.823C220.071 305.08 212.48 291.508 203.116 291.508C193.752 291.508 186.161 305.08 186.161 321.823C186.161 338.565 193.752 352.137 203.116 352.137Z" fill="#263238"/>
<path d="M204.48 345.462C211.118 345.462 216.5 334.878 216.5 321.823C216.5 308.767 211.118 298.184 204.48 298.184C197.841 298.184 192.46 308.767 192.46 321.823C192.46 334.878 197.841 345.462 204.48 345.462Z" fill="white"/>
<path d="M88.4375 321.823C88.4375 305.08 96.0278 291.508 105.392 291.508H87.4062C78.0427 291.508 70.4515 305.08 70.4515 321.823C70.4515 338.565 78.0427 352.137 87.4062 352.137H105.392C96.0287 352.137 88.4375 338.565 88.4375 321.823Z" fill="#263238"/>
<path d="M105.392 352.137C114.756 352.137 122.347 338.565 122.347 321.823C122.347 305.08 114.756 291.508 105.392 291.508C96.0284 291.508 88.4375 305.08 88.4375 321.823C88.4375 338.565 96.0284 352.137 105.392 352.137Z" fill="#263238"/>
<path d="M302.346 321.823C302.346 305.08 309.937 291.508 319.301 291.508H301.315C291.951 291.508 284.36 305.08 284.36 321.823C284.36 338.565 291.951 352.137 301.315 352.137H319.301C309.936 352.137 302.346 338.565 302.346 321.823Z" fill="#263238"/>
<path d="M319.3 352.137C328.664 352.137 336.255 338.565 336.255 321.823C336.255 305.08 328.664 291.508 319.3 291.508C309.936 291.508 302.345 305.08 302.345 321.823C302.345 338.565 309.936 352.137 319.3 352.137Z" fill="#263238"/>
<path d="M320.664 345.462C327.302 345.462 332.684 334.878 332.684 321.823C332.684 308.767 327.302 298.184 320.664 298.184C314.025 298.184 308.644 308.767 308.644 321.823C308.644 334.878 314.025 345.462 320.664 345.462Z" fill="white"/>
<path d="M166.126 330.283H144.378L143.164 329.068C141.91 327.814 140.209 327.11 138.437 327.11H84.0772C82.3048 327.11 80.6044 327.814 79.3506 329.068L78.612 329.806H76.629C70.18 329.806 64.9525 324.579 64.9525 318.13V300.202H188.323L178.494 321.542C176.639 326.781 171.684 330.283 166.126 330.283Z" fill="#D13D41"/>
<path opacity="0.2" d="M166.126 330.283H144.378L143.164 329.068C141.91 327.814 140.209 327.11 138.437 327.11H84.0772C82.3048 327.11 80.6044 327.814 79.3506 329.068L78.612 329.806H76.629C70.18 329.806 64.9525 324.579 64.9525 318.13V300.202H188.323L178.494 321.542C176.639 326.781 171.684 330.283 166.126 330.283Z" fill="black"/>
<path d="M294.543 223.922C294.471 223.922 294.397 223.904 294.33 223.864C294.129 223.747 294.06 223.488 294.178 223.286L300.1 213.134C300.217 212.931 300.476 212.863 300.679 212.981C300.88 213.099 300.948 213.358 300.831 213.56L294.909 223.712C294.83 223.847 294.689 223.922 294.543 223.922Z" fill="#263238"/>
<path d="M325.778 274.423V262.884C325.778 256.821 316.963 228.198 304.837 222.841C292.711 217.483 263.383 215.085 244.912 216.073C226.441 217.06 201.8 255.693 201.8 255.693L204.48 288.923C208.233 288.923 220.194 287.795 221.948 320.67C222.204 325.471 226.153 329.248 230.961 329.248H295.643C300.139 329.248 303.948 325.945 304.579 321.494C306.238 309.779 310.686 288.917 321.334 288.917C328.806 288.917 334.165 295.314 334.165 302.646C334.165 294.589 332.206 286.653 328.457 279.521L325.778 274.423Z" fill="#D13D41"/>
<path d="M177.232 216.073C143.58 216.073 105.463 255.693 105.463 255.693H201.8C201.8 255.693 226.441 217.059 244.912 216.073H177.232Z" fill="#D13D41"/>
<path opacity="0.4" d="M179.295 216.073C150.948 216.073 121.223 244.185 112.555 253.05C111.591 254.035 112.288 255.693 113.667 255.693H191.38C197.712 255.693 203.677 252.696 207.422 247.591C215.776 236.205 231.879 216.769 244.911 216.073H179.295Z" fill="white"/>
<path d="M201.8 255.693L166.21 283.775L70.4515 283.47C70.4515 283.47 64.9525 291.461 64.9525 300.202C70.9219 300.202 181.368 300.202 188.324 300.202C190.345 294.845 197.43 288.923 204.48 288.923C204.48 278.958 201.8 255.693 201.8 255.693Z" fill="#D13D41"/>
<path opacity="0.2" d="M178.509 275.499C178.304 275.499 178.123 275.348 178.091 275.14C178.056 274.909 178.215 274.693 178.446 274.658C188.938 273.068 196.796 267.938 201.541 263.915C204.229 261.637 204.757 257.731 202.768 254.829C202.636 254.637 202.684 254.374 202.878 254.242C203.07 254.11 203.333 254.159 203.465 254.352C205.701 257.612 205.108 262.001 202.087 264.561C197.259 268.655 189.261 273.875 178.573 275.495C178.552 275.497 178.53 275.499 178.509 275.499Z" fill="black"/>
<path d="M70.4515 283.47C70.4515 283.47 87.2734 263.871 105.462 255.693H201.799L166.209 283.775L70.4515 283.47Z" fill="#D13D41"/>
<path d="M144.943 283.47H81.7744V285.303H144.943V283.47Z" fill="#263238"/>
<path d="M143.636 279.796L147.032 276.399C147.794 275.638 148.757 275.112 149.809 274.882L175.371 269.316C176.269 269.12 177.201 269.148 178.087 269.397L179.453 269.781C183.428 270.899 184.878 275.78 182.159 278.887L176.664 285.166C175.717 286.25 174.389 286.928 172.955 287.06L148.125 289.361C146.465 289.515 144.824 288.923 143.643 287.747C141.442 285.555 141.439 281.993 143.636 279.796Z" fill="white"/>
<path d="M83.5628 281.59L80.755 276.356C80.3607 275.622 79.7753 275.008 79.0604 274.579C77.6806 273.753 75.97 273.704 74.5453 274.451L72.4227 275.564C71.3737 276.114 70.5759 277.046 70.1952 278.168L68.8949 282C67.9838 284.684 69.6859 287.548 72.4794 288.03L78.3227 289.039C80.2778 289.377 82.2304 288.427 83.1711 286.68L83.5586 285.96C84.2938 284.596 84.2955 282.955 83.5628 281.59Z" fill="white"/>
<path opacity="0.4" d="M221.478 256.821H310.542C313.787 256.821 316.106 253.696 315.176 250.586C313.15 243.811 309.245 233.235 303.409 227.837C302.761 227.238 301.961 226.837 301.098 226.654C290.601 224.429 273.722 222.947 261.2 222.088C249.715 221.299 238.465 225.574 230.4 233.791C226.153 238.119 221.572 243.42 217.553 249.469C215.464 252.613 217.702 256.821 221.478 256.821Z" fill="white"/>
<path d="M163.884 310.119C163.884 312.896 161.043 315.149 157.539 315.149C154.035 315.149 151.194 312.897 151.194 310.119C151.194 307.342 154.035 305.09 157.539 305.09C161.043 305.09 163.884 307.342 163.884 310.119Z" fill="#263238"/>
<path d="M112.765 279.631C114.847 279.631 115.863 281.76 115.034 284.387C114.206 287.014 111.845 289.143 109.763 289.143C107.681 289.143 106.665 287.014 107.494 284.387C108.324 281.76 110.683 279.631 112.765 279.631Z" fill="#263238"/>
<path d="M70.0717 310.119C70.0717 312.896 69.2722 315.149 68.2858 315.149C67.2993 315.149 66.4999 312.897 66.4999 310.119C66.4999 307.342 67.2993 305.09 68.2858 305.09C69.2722 305.09 70.0717 307.342 70.0717 310.119Z" fill="#263238"/>
<path d="M218.732 256.017V253.166C218.732 249.673 221.942 247.064 225.361 247.777L236.206 250.037C238.758 250.569 240.587 252.819 240.587 255.426V256.016C240.587 259.056 238.123 261.521 235.082 261.521H224.237C221.198 261.521 218.732 259.057 218.732 256.017Z" fill="#263238"/>
<path d="M275.797 223.268C275.797 223.268 274.35 223.123 271.826 222.901C282.982 245.754 280.139 256.822 280.139 256.822H288.646C288.731 242.909 275.797 223.268 275.797 223.268Z" fill="#263238"/>
<path opacity="0.2" d="M181.757 246.595C181.393 250.317 178.275 253.155 174.535 253.155H130.693C127.494 253.155 126.335 249.59 128.65 246.928C133.099 241.811 137.891 237.329 142.236 233.664C150.491 226.714 160.745 223.1 170.329 223.765C171.497 223.847 172.711 223.935 173.957 224.031C177.163 224.275 179.828 226.614 180.5 229.759C182.074 237.128 182.136 242.726 181.757 246.595Z" fill="#D13D41"/>
<path opacity="0.2" d="M281.149 323.232C280.915 323.232 280.726 323.043 280.726 322.809C280.726 314.248 285.089 278.947 286.235 273.652C287.344 268.517 287.347 262.788 286.242 259.056C286.176 258.832 286.303 258.597 286.528 258.531C286.752 258.467 286.987 258.593 287.054 258.817C288.197 262.674 288.199 268.567 287.061 273.831C285.921 279.107 281.572 314.281 281.572 322.81C281.572 323.043 281.382 323.232 281.149 323.232Z" fill="black"/>
<path opacity="0.2" d="M280.026 274.07H269.71C268.85 274.07 268.272 273.367 268.423 272.508L268.635 271.309C268.787 270.449 269.614 269.746 270.474 269.746H280.79C281.65 269.746 282.228 270.449 282.077 271.309L281.865 272.508C281.714 273.367 280.886 274.07 280.026 274.07Z" fill="black"/>
<path d="M311.226 145.917H310.38C310.38 143.754 310.07 141.614 309.457 139.558L310.268 139.317C310.904 141.451 311.226 143.672 311.226 145.917ZM307.578 135.101C303.63 128.012 296.153 123.609 288.065 123.609V122.763C296.46 122.763 304.22 127.333 308.316 134.69L307.578 135.101Z" fill="#D13D41"/>
<path d="M288.066 125.725C276.914 125.725 267.874 134.765 267.874 145.916C267.874 165.366 288.066 178.707 288.066 178.707C288.066 178.707 308.266 165.366 308.266 145.916C308.265 134.765 299.225 125.725 288.066 125.725ZM288.066 155.431C282.861 155.431 278.64 151.211 278.64 146.006C278.64 140.793 282.861 136.581 288.066 136.581C293.279 136.581 297.499 140.792 297.499 146.006C297.499 151.211 293.279 155.431 288.066 155.431Z" fill="#D13D41"/>
<path d="M252.086 350.851L257.193 350.77L258.667 338.926L253.56 339.007L252.086 350.851Z" fill="#B55B52"/>
<path d="M276.471 350.477L281.433 348.956L278.354 337.732L273.393 339.252L276.471 350.477Z" fill="#B55B52"/>
<path d="M281.28 347.469L275.748 350.324C275.562 350.419 275.469 350.631 275.521 350.833L276.706 355.328C276.829 355.795 277.363 356.021 277.787 355.792C279.551 354.843 280.795 354.069 283.037 352.911C284.416 352.2 288.649 350.197 290.554 349.214C292.417 348.253 291.735 346.22 290.867 346.451C286.977 347.491 283.798 347.796 282.16 347.368C281.864 347.291 281.55 347.33 281.28 347.469Z" fill="#263238"/>
<path d="M257.297 350.18L251.722 350.267C251.513 350.27 251.335 350.418 251.293 350.622L250.356 355.176C250.259 355.648 250.623 356.088 251.105 356.073C253.116 356.007 256.02 355.844 258.547 355.804C261.503 355.757 262.36 355.879 265.826 355.824C267.921 355.791 268.471 353.664 267.59 353.485C263.582 352.674 262.017 352.631 258.533 350.558C258.155 350.333 257.738 350.173 257.297 350.18Z" fill="#263238"/>
<path d="M265.053 195.472C266.211 197.795 267.518 200.258 268.832 202.598C270.159 204.953 271.532 207.275 273.014 209.47C273.394 210.006 273.75 210.574 274.14 211.094L275.09 212.395C275.291 212.651 275.4 212.773 275.428 212.832C275.456 212.887 275.48 212.97 275.726 212.987C276.211 213.022 277.232 212.512 278.142 211.804C278.606 211.447 279.077 211.041 279.546 210.613C280.002 210.192 280.474 209.684 280.876 209.279L284.216 211.161C283.913 211.972 283.594 212.628 283.215 213.338C282.844 214.036 282.418 214.717 281.916 215.381C281.42 216.051 280.84 216.693 280.136 217.312C279.435 217.93 278.574 218.508 277.455 218.913C276.354 219.325 274.92 219.463 273.596 219.123C272.266 218.798 271.169 218.112 270.363 217.396C270.136 217.215 269.976 217.034 269.784 216.848L269.51 216.568L269.316 216.348L268.573 215.496C268.071 214.931 267.618 214.346 267.142 213.766C265.306 211.423 263.666 208.989 262.15 206.493C261.405 205.24 260.667 203.983 259.995 202.691C259.311 201.388 258.658 200.142 258.028 198.722L265.053 195.472Z" fill="#B55B52"/>
<path d="M255.895 195.503C254.518 200.186 264.209 212.955 264.209 212.955L273.981 206.667C273.981 206.667 271.109 200.152 267.21 195.184C263.206 190.084 257.406 190.363 255.895 195.503Z" fill="#D13D41"/>
<g opacity="0.2">
<path d="M255.895 195.503C254.518 200.186 264.209 212.955 264.209 212.955L273.981 206.667C273.981 206.667 271.109 200.152 267.21 195.184C263.206 190.084 257.406 190.363 255.895 195.503Z" fill="black"/>
</g>
<path opacity="0.2" d="M261.851 201.001C263.861 201.86 266.819 206.701 268.359 210.289L264.212 212.953C264.212 212.953 260.477 208.036 257.978 203.183C259.288 201.746 260.789 200.549 261.851 201.001Z" fill="black"/>
<path d="M280.298 210.2L283.836 204.48L286.918 209.408C286.918 209.408 285.787 211.568 283.512 212.189L280.298 210.2Z" fill="#B55B52"/>
<path d="M288.764 204.541L288.752 206.31C288.747 206.861 288.556 207.394 288.209 207.821L286.918 209.409L283.836 204.481L287.023 203.316C287.872 203.004 288.769 203.637 288.764 204.541Z" fill="#B55B52"/>
<path d="M285.317 211.849L279.75 211.764L282.831 200.233L288.397 200.318L285.317 211.849Z" fill="#D13D41"/>
<path d="M285.88 211.849L280.314 211.764L283.394 200.233L288.961 200.318L285.88 211.849Z" fill="#263238"/>
<path opacity="0.2" d="M258.665 338.93L257.906 345.034L252.797 345.115L253.555 339.01L258.665 338.93Z" fill="black"/>
<path opacity="0.2" d="M273.393 339.255L278.356 337.734L279.941 343.521L274.976 345.042L273.393 339.255Z" fill="black"/>
<path d="M234.304 197.979C238.471 215.936 237.564 233.737 238.022 237.578C242.016 237.288 257.058 236.167 265.258 235.554C267.87 206.375 261.681 191.562 261.681 191.562C261.681 191.562 259.929 191.222 257.548 190.978C256.801 190.902 255.995 190.834 255.157 190.79C254.693 190.762 254.223 190.747 253.746 190.737C250.665 190.687 245.633 191.177 242.167 191.6C241.441 191.691 240.701 191.8 239.987 191.917C239.324 192.03 238.674 192.15 238.061 192.273C238.033 192.279 238.005 192.284 237.978 192.29C235.372 192.812 233.703 195.392 234.304 197.979Z" fill="#D13D41"/>
<g opacity="0.2">
<path d="M234.304 197.979C238.471 215.936 237.564 233.737 238.022 237.578C242.016 237.288 257.058 236.167 265.258 235.554C267.87 206.375 261.681 191.562 261.681 191.562C261.681 191.562 259.929 191.222 257.548 190.978C256.801 190.902 255.995 190.834 255.157 190.79C254.693 190.762 254.223 190.747 253.746 190.737C250.665 190.687 245.633 191.177 242.167 191.6C241.441 191.691 240.701 191.8 239.987 191.917C239.324 192.03 238.674 192.15 238.061 192.273C238.033 192.279 238.005 192.284 237.978 192.29C235.372 192.812 233.703 195.392 234.304 197.979Z" fill="black"/>
</g>
<path opacity="0.2" d="M238.949 201.755L235.825 205.775C235.834 205.828 235.843 205.871 235.843 205.923C236.278 208.646 236.617 211.318 236.87 213.886C239.855 210.187 239.41 203.512 238.949 201.755Z" fill="black"/>
<path d="M243.521 183.634C244.173 186.376 244.134 189.423 242.167 191.599C244.341 193.461 247.161 195.588 251.595 195.415C256.03 195.242 255.031 192.256 253.743 190.737C249.954 190.126 249.948 187.665 249.919 184.962C249.913 184.398 249.546 183.902 249.009 183.73L244.849 182.395C244.074 182.146 243.333 182.841 243.521 183.634Z" fill="#B55B52"/>
<path d="M255.524 212.913C253.243 212.913 251.135 210.172 250.722 206.668C250.468 204.507 250.938 202.516 251.979 201.341C252.578 200.666 253.327 200.307 254.145 200.305C254.147 200.305 254.149 200.305 254.152 200.305C256.434 200.305 258.543 203.046 258.955 206.55C259.209 208.711 258.739 210.702 257.697 211.876C257.098 212.552 256.349 212.911 255.531 212.913C255.529 212.913 255.527 212.913 255.524 212.913ZM254.152 201.152C254.15 201.152 254.149 201.152 254.147 201.152C253.57 201.153 253.054 201.406 252.613 201.904C251.742 202.886 251.34 204.674 251.563 206.569C251.914 209.551 253.728 212.068 255.525 212.068C255.527 212.068 255.528 212.068 255.53 212.068C256.108 212.066 256.624 211.813 257.064 211.316C257.935 210.334 258.338 208.547 258.115 206.65H258.114C257.763 203.668 255.95 201.152 254.152 201.152Z" fill="#D13D41"/>
<path opacity="0.2" d="M249.922 185.117L245.736 185.656C245.832 185.839 245.945 186.022 246.058 186.196C246.85 187.467 248.617 188.302 250.409 188.606C249.957 187.623 249.94 186.396 249.922 185.117Z" fill="black"/>
<path d="M255.353 174.234C257.683 174.627 262.033 171.98 261.018 168.463C259.713 170.095 255.353 169.551 255.353 169.551V174.234Z" fill="#263238"/>
<path d="M246.267 178.001C246.521 180.349 243.62 184.535 240.17 183.313C241.876 182.107 241.593 177.723 241.593 177.723L246.267 178.001Z" fill="#263238"/>
<path d="M242.858 173.414C242.233 178.443 241.611 181.354 243.645 184.376C246.703 188.921 253.266 187.793 255.381 183.052C257.285 178.785 257.988 171.279 253.491 168.39C249.062 165.543 243.483 168.385 242.858 173.414Z" fill="#B55B52"/>
<path d="M242.167 178.47C243.396 179.763 246.77 174.482 246.153 172.596C247.422 173.147 249.859 172.088 249.706 169.985C253.506 172.015 259.008 173.625 259.097 169.949C259.186 166.272 255.712 163.567 252.31 163.277C252.715 164.365 251.642 164.836 249.437 164.365C247.232 163.894 238.713 159.987 239.657 167.809C236.494 168.02 236.073 172.053 242.167 178.47Z" fill="#263238"/>
<path d="M239.679 176.556C239.856 177.91 240.642 179.058 241.543 179.728C242.898 180.735 243.739 179.667 243.868 178.072C243.984 176.636 243.858 174.383 242.254 174.004C240.675 173.631 239.476 175.007 239.679 176.556Z" fill="#B55B52"/>
<path d="M247.353 236.888L265.257 235.557C265.257 235.557 267.57 272.298 267.395 287.88C267.217 304.083 259.804 343.825 259.804 343.825L251.16 343.957C251.16 343.957 251.842 305.411 251.842 289.5C251.842 268.07 247.353 236.888 247.353 236.888Z" fill="#263238"/>
<path opacity="0.2" d="M254.273 275.076C254.508 276.138 261.164 305.924 263.314 323.319C264.463 316.088 265.637 307.978 266.429 300.816L254.273 275.076Z" fill="black"/>
<path d="M255.597 236.275C255.597 236.275 269.218 269.663 272.295 284.303C275.664 300.336 281.046 340.884 281.046 340.884L271.807 342.329C271.807 342.329 264.804 312.016 260.892 296.528C256.436 278.886 238.794 250.938 238.024 237.583C255.597 236.275 255.597 236.275 255.597 236.275Z" fill="#263238"/>
<path d="M282.21 341.672L270.723 344.361L269.276 339.941L281.815 337.789L282.21 341.672Z" fill="#D13D41"/>
<path d="M260.894 344.01L250.593 344.171L250.54 340.843L262.053 340.487L260.894 344.01Z" fill="#D13D41"/>
<path d="M249.863 176.036C249.787 176.441 249.94 176.809 250.205 176.858C250.469 176.908 250.745 176.619 250.82 176.215C250.897 175.81 250.743 175.442 250.479 175.393C250.215 175.343 249.938 175.63 249.863 176.036Z" fill="#263238"/>
<path d="M254.874 177.098C254.798 177.503 254.951 177.871 255.216 177.921C255.481 177.97 255.757 177.682 255.833 177.278C255.909 176.872 255.756 176.504 255.491 176.455C255.225 176.405 254.95 176.694 254.874 177.098Z" fill="#263238"/>
<path d="M253.221 177C253.221 177 253.704 179.508 254.507 180.824C253.666 181.359 252.506 180.825 252.506 180.825L253.221 177Z" fill="#A02724"/>
<path d="M251.648 182.069C250.106 181.718 249.479 180.57 249.452 180.516C249.42 180.457 249.443 180.384 249.501 180.353C249.561 180.322 249.633 180.344 249.665 180.403C249.672 180.416 250.405 181.75 252.2 181.91C252.266 181.916 252.316 181.975 252.31 182.041C252.304 182.108 252.245 182.157 252.179 182.151C251.99 182.134 251.814 182.107 251.648 182.069Z" fill="#263238"/>
<path d="M249.364 174.221C249.326 174.208 249.29 174.186 249.261 174.154C249.172 174.055 249.178 173.902 249.277 173.812C250.267 172.912 251.351 173.181 251.397 173.193C251.526 173.227 251.603 173.359 251.569 173.488C251.535 173.617 251.404 173.695 251.276 173.662C251.24 173.653 250.393 173.452 249.603 174.17C249.535 174.231 249.444 174.248 249.364 174.221Z" fill="#263238"/>
<path d="M257.572 175.839C257.498 175.815 257.437 175.755 257.415 175.674C257.133 174.644 256.31 174.36 256.275 174.348C256.149 174.306 256.08 174.169 256.121 174.043C256.163 173.916 256.297 173.847 256.424 173.888C256.47 173.904 257.528 174.256 257.882 175.546C257.918 175.674 257.841 175.807 257.713 175.843C257.665 175.856 257.616 175.854 257.572 175.839Z" fill="#263238"/>
<path d="M283.189 347.488C282.77 347.704 282.272 347.851 281.918 347.937C281.87 347.949 281.82 347.93 281.792 347.891C281.763 347.852 281.76 347.799 281.785 347.758C281.896 347.569 282.896 345.914 283.531 345.913C283.629 345.913 283.769 345.949 283.872 346.122C284.011 346.355 284.035 346.585 283.943 346.805C283.827 347.084 283.534 347.309 283.189 347.488ZM282.151 347.626C283.001 347.383 283.579 347.049 283.72 346.713C283.781 346.566 283.764 346.413 283.665 346.247C283.616 346.166 283.568 346.156 283.532 346.156C283.202 346.156 282.568 346.974 282.151 347.626Z" fill="#D13D41"/>
<path d="M281.945 347.928C281.924 347.939 281.901 347.943 281.877 347.94C281.833 347.936 281.795 347.908 281.777 347.867C281.753 347.809 281.186 346.444 281.49 345.741C281.57 345.558 281.7 345.432 281.877 345.366C282.15 345.265 282.299 345.389 282.364 345.471C282.721 345.927 282.326 347.39 281.989 347.887C281.978 347.905 281.962 347.918 281.945 347.928ZM281.911 345.616C281.823 345.661 281.757 345.734 281.713 345.837C281.518 346.288 281.766 347.126 281.911 347.535C282.195 346.94 282.386 345.891 282.175 345.621C282.155 345.596 282.111 345.539 281.962 345.593C281.944 345.599 281.927 345.607 281.911 345.616Z" fill="#D13D41"/>
<path d="M257.811 350.878C257.769 350.863 257.736 350.827 257.73 350.782C257.722 350.731 257.747 350.681 257.792 350.657C258.022 350.533 260.059 349.461 260.684 349.797C260.805 349.862 260.875 349.972 260.889 350.115C260.911 350.356 260.838 350.555 260.671 350.707C260.12 351.211 258.653 351.033 257.828 350.882C257.822 350.88 257.816 350.879 257.811 350.878ZM260.524 349.99C260.137 349.863 259.031 350.305 258.227 350.703C259.357 350.873 260.197 350.811 260.506 350.527C260.615 350.428 260.661 350.3 260.646 350.137C260.64 350.073 260.617 350.035 260.567 350.009C260.555 350.001 260.54 349.995 260.524 349.99Z" fill="#D13D41"/>
<path d="M257.811 350.878C257.8 350.874 257.79 350.869 257.78 350.862C257.744 350.838 257.725 350.796 257.728 350.753C257.733 350.695 257.849 349.318 258.49 348.775C258.686 348.609 258.911 348.535 259.158 348.556C259.491 348.585 259.589 348.752 259.614 348.887C259.716 349.463 258.512 350.586 257.901 350.872C257.872 350.885 257.84 350.887 257.811 350.878ZM259.261 348.82C259.23 348.81 259.189 348.802 259.137 348.797C258.954 348.781 258.794 348.835 258.648 348.959C258.226 349.316 258.057 350.141 257.998 350.544C258.621 350.156 259.437 349.275 259.376 348.929C259.371 348.908 259.362 348.853 259.261 348.82Z" fill="#D13D41"/>
<path d="M242.473 199.553C240.786 202.557 239.091 205.763 237.57 208.917C236.032 212.081 234.636 215.299 233.63 218.465C233.505 218.859 233.411 219.247 233.297 219.639C233.249 219.817 233.173 220.07 233.147 220.187C233.133 220.287 233.092 220.376 233.079 220.486C233.01 220.911 233.015 221.461 233.128 222.083C233.365 223.334 233.992 224.789 234.777 226.203C236.378 229.038 238.605 231.895 240.882 234.484L238.431 237.432C235.191 235.229 232.331 232.737 229.817 229.517C228.593 227.887 227.435 226.091 226.709 223.801C226.352 222.658 226.11 221.369 226.177 219.968C226.187 219.622 226.242 219.26 226.285 218.908C226.332 218.573 226.382 218.385 226.432 218.117C226.534 217.62 226.624 217.111 226.739 216.623C227.674 212.731 229.044 209.149 230.579 205.678C232.137 202.196 233.833 198.911 235.823 195.591L242.473 199.553Z" fill="#B55B52"/>
<path d="M237.157 192.629C232.449 193.918 227.824 207.158 227.824 207.158L239.161 210.304C239.161 210.304 241.66 207.141 243.88 201.235C246.299 194.802 242.86 191.067 237.157 192.629Z" fill="#D13D41"/>
<g opacity="0.2">
<path d="M237.157 192.629C232.449 193.918 227.824 207.158 227.824 207.158L239.161 210.304C239.161 210.304 241.66 207.141 243.88 201.235C246.299 194.802 242.86 191.067 237.157 192.629Z" fill="black"/>
</g>
<path d="M238.709 233.614L243.883 234.976L241.829 239.844C241.829 239.844 237.182 238.859 237.214 236.326L238.709 233.614Z" fill="#B55B52"/>
<path d="M245.871 238.278L244.343 242.124L241.828 239.844L243.882 234.976L245.871 238.278Z" fill="#B55B52"/>
</svg>
