<svg width="430" height="668" viewBox="0 0 430 668" fill="none" xmlns="http://www.w3.org/2000/svg">
<path d="M466.586 582.277C466.192 590.588 459.104 597.011 450.809 596.35C315.045 585.538 186.655 527.581 87.2981 431.942C-15.7262 332.773 -80.774 199.596 -96.1453 56.3674C-111.517 -86.8618 -76.2026 -230.744 3.44488 -349.399C80.26 -463.835 193.45 -547.563 323.852 -586.765C331.814 -589.158 340.092 -584.386 342.239 -576.354L388.715 -402.464C390.846 -394.49 386.121 -386.32 378.248 -383.839C295.172 -357.652 223.138 -303.663 173.951 -230.386C121.958 -152.93 98.9058 -59.0068 108.94 34.4905C118.974 127.988 161.436 214.923 228.688 279.659C292.317 340.907 374.187 378.481 460.947 386.547C469.159 387.311 475.499 394.288 475.108 402.526L466.586 582.277Z" fill="#D13D41"/>
<path opacity="0.5" d="M240.007 476.858L93 384.441L152.883 346.862L246.091 411.797L288.385 464.507L240.007 476.858Z" fill="#0F054C"/>
<path opacity="0.5" d="M194.584 336.325C209.614 331.065 220.49 323.064 218.877 318.454C217.264 313.843 203.772 314.369 188.741 319.629C173.711 324.888 162.835 332.89 164.448 337.5C166.061 342.11 179.554 341.584 194.584 336.325Z" fill="#0F054C"/>
<path d="M180.814 301.666L181.003 296.924L182.105 294.148L182.805 296.446L180.814 301.666Z" fill="#DD821F"/>
<path d="M230.589 302.572L230.775 297.918C230.775 297.918 226.84 301.845 226.838 301.94C226.835 302.036 230.589 302.572 230.589 302.572Z" fill="#FFD85A"/>
<path d="M205.36 316.373C191.617 316.044 180.712 309.057 181.002 296.924C181.292 284.791 192.669 275.223 206.412 275.552C220.155 275.881 231.06 285.983 230.77 298.116C230.48 310.249 219.103 316.702 205.36 316.373Z" fill="#FFD85A"/>
<path d="M230.563 302.857C230.853 290.724 219.948 280.623 206.205 280.294C192.462 279.966 181.086 289.534 180.796 301.667C180.506 313.799 191.412 323.9 205.155 324.229C218.897 324.558 230.273 314.989 230.563 302.857Z" fill="#FFD85A"/>
<path d="M188.331 286.434C183.818 290.293 180.958 295.665 180.815 301.666C180.525 313.799 191.43 323.901 205.173 324.23C211.971 324.393 218.188 322.131 222.772 318.338L188.331 286.434Z" fill="#DD821F"/>
<path d="M229.453 302.83C229.73 291.238 219.311 281.587 206.181 281.273C193.051 280.96 182.182 290.102 181.905 301.693C181.628 313.284 192.047 322.935 205.177 323.249C218.307 323.563 229.176 314.421 229.453 302.83Z" fill="#F9BF30"/>
<path d="M205.295 319.111C194.755 318.859 186.39 311.111 186.613 301.805C186.836 292.5 195.561 285.161 206.102 285.413C216.643 285.665 225.007 293.413 224.784 302.719C224.56 312.025 215.835 319.363 205.295 319.111Z" fill="#F2B42A"/>
<path d="M224.783 302.719C224.792 302.333 224.781 301.952 224.761 301.572C223.883 310.326 215.452 317.06 205.349 316.819C195.245 316.577 187.147 309.447 186.689 300.661C186.651 301.04 186.622 301.42 186.613 301.806C186.39 311.111 194.754 318.859 205.295 319.112C215.835 319.363 224.56 312.025 224.783 302.719Z" fill="#FFD85A"/>
<path d="M209.36 303.683L205.446 300.057C201.677 300.912 194.651 302.513 189.038 303.831C190.433 308.03 193.836 311.494 198.282 313.333L209.36 303.683Z" fill="#FFD85A"/>
<path d="M203.199 314.616C203.821 314.692 204.453 314.741 205.095 314.756C209.702 314.866 213.92 313.356 217.058 310.815L210.668 304.896L203.199 314.616Z" fill="#FFD85A"/>
<path d="M201.246 296.167L193.872 289.336C191.392 291.503 189.175 293.891 188.577 297.083L201.246 296.167Z" fill="#FFD85A"/>
<path d="M205.103 287.428C215.643 287.68 224.008 295.428 223.785 304.734C223.74 306.62 223.34 308.422 222.652 310.1C223.955 307.889 224.719 305.386 224.783 302.719C225.006 293.414 216.642 285.666 206.101 285.413C197.697 285.212 190.451 289.839 187.745 296.439C190.989 290.934 197.583 287.248 205.103 287.428Z" fill="#DD821F"/>
<path d="M181.003 296.924C180.96 298.729 180.791 300.035 181.216 301.725C181.764 299.946 182.953 294.621 182.953 294.621L184.848 290.39L186.426 289.09L189.097 287.143L189.318 281.04C184.345 284.934 181.154 290.577 181.003 296.924Z" fill="#DD821F"/>
<path d="M229.163 296.302L229.268 295.052C229.272 294.873 229.412 294.731 229.58 294.735L229.674 294.737C229.842 294.741 229.975 294.89 229.971 295.069L229.867 296.32C229.863 296.499 229.723 296.641 229.555 296.637L229.461 296.635C229.292 296.63 229.159 296.481 229.163 296.302Z" fill="#DD821F"/>
<path d="M226.977 291.511L227.105 289.263C227.11 289.059 227.269 288.897 227.461 288.902L227.679 288.907C227.871 288.912 228.022 289.081 228.017 289.285L227.889 291.533C227.884 291.737 227.725 291.899 227.533 291.894L227.315 291.889C227.123 291.884 226.972 291.715 226.977 291.511Z" fill="#DD821F"/>
<path d="M223.946 287.332L224.073 285.153C224.078 284.922 224.259 284.739 224.475 284.745L224.856 284.754C225.073 284.759 225.244 284.951 225.238 285.181L225.111 287.36C225.106 287.591 224.925 287.774 224.709 287.768L224.328 287.759C224.111 287.754 223.94 287.563 223.946 287.332Z" fill="#DD821F"/>
<path d="M219.408 283.958L219.546 281.317C219.551 281.086 219.732 280.903 219.948 280.908L220.329 280.917C220.546 280.922 220.717 281.114 220.711 281.344L220.573 283.985C220.567 284.216 220.387 284.399 220.171 284.393L219.79 284.384C219.574 284.381 219.403 284.189 219.408 283.958Z" fill="#DD821F"/>
<path d="M214.843 281.743L214.99 278.7C214.995 278.469 215.176 278.286 215.392 278.291L215.773 278.3C215.99 278.305 216.161 278.496 216.155 278.727L216.008 281.77C216.002 282.001 215.822 282.184 215.606 282.179L215.225 282.17C215.009 282.165 214.838 281.974 214.843 281.743Z" fill="#DD821F"/>
<path d="M210.257 280.391L210.402 277.467C210.408 277.236 210.588 277.053 210.804 277.058L211.185 277.067C211.401 277.072 211.573 277.263 211.567 277.494L211.422 280.418C211.416 280.649 211.236 280.832 211.02 280.827L210.639 280.818C210.423 280.813 210.252 280.622 210.257 280.391Z" fill="#DD821F"/>
<path d="M205.65 279.93L205.796 276.961C205.802 276.73 205.982 276.547 206.198 276.552L206.579 276.561C206.796 276.566 206.967 276.757 206.961 276.988L206.815 279.957C206.809 280.188 206.629 280.371 206.413 280.366L206.032 280.357C205.816 280.352 205.645 280.161 205.65 279.93Z" fill="#DD821F"/>
<path d="M201.029 280.028L201.17 277.246C201.176 277.015 201.356 276.832 201.572 276.837L201.953 276.846C202.169 276.851 202.341 277.043 202.335 277.273L202.194 280.055C202.189 280.286 202.009 280.469 201.792 280.463L201.411 280.454C201.195 280.45 201.024 280.259 201.029 280.028Z" fill="#DD821F"/>
<path d="M196.387 281.039L196.526 278.345C196.531 278.114 196.712 277.931 196.928 277.936L197.309 277.945C197.525 277.95 197.697 278.141 197.691 278.372L197.552 281.066C197.546 281.297 197.366 281.48 197.15 281.474L196.769 281.465C196.553 281.461 196.382 281.27 196.387 281.039Z" fill="#DD821F"/>
<path d="M191.714 283.307L191.858 280.391C191.864 280.16 192.044 279.977 192.26 279.982L192.641 279.991C192.858 279.996 193.029 280.187 193.023 280.418L192.879 283.334C192.874 283.565 192.693 283.748 192.477 283.742L192.096 283.733C191.88 283.729 191.709 283.538 191.714 283.307Z" fill="#DD821F"/>
<path d="M364.02 419.818L363.983 429.655L363.977 429.651C363.984 429.785 363.913 429.915 363.748 430.01L256.783 491.387C256.434 491.587 255.825 491.561 255.423 491.327L237.99 481.2C237.797 481.088 237.691 480.948 237.668 480.811L237.665 480.812V480.804C237.663 480.794 237.666 480.784 237.665 480.774L237.701 470.838L246.158 475.672L344.859 419.037C345.208 418.837 345.817 418.864 346.219 419.097L352.202 422.573L364.02 419.818Z" fill="url(#paint0_linear_38_307)"/>
<path d="M344.899 409.151L237.934 470.528C237.585 470.728 237.628 471.08 238.03 471.313L255.463 481.44C255.865 481.673 256.474 481.7 256.823 481.5L363.788 420.123C364.137 419.923 364.094 419.571 363.692 419.338L346.259 409.211C345.857 408.977 345.248 408.95 344.899 409.151Z" fill="url(#paint1_linear_38_307)"/>
<path opacity="0.6" d="M341.03 423.941L256.978 471.286C256.356 467.953 255.388 464.575 254.106 461.248L338.008 413.105C339.393 416.698 340.418 420.35 341.03 423.941Z" fill="#24126A"/>
<path d="M348.604 414.827L247.742 472.702C247.503 472.839 247.532 473.079 247.807 473.239L252.187 475.783C252.462 475.943 252.878 475.961 253.117 475.824L353.979 417.949C354.218 417.812 354.189 417.572 353.914 417.412L349.534 414.868C349.259 414.708 348.843 414.69 348.604 414.827Z" fill="#24126A"/>
<path d="M353.979 417.949L351.928 419.126L349.564 417.753C349.289 417.593 348.873 417.575 348.634 417.712L249.823 474.41L247.807 473.239C247.532 473.079 247.503 472.839 247.742 472.702L348.604 414.827C348.843 414.69 349.259 414.708 349.534 414.868L353.914 417.412C354.189 417.572 354.218 417.812 353.979 417.949Z" fill="#453C9E"/>
<path opacity="0.96" d="M94.348 315.148L178.258 267C178.218 282.034 188.724 300.343 201.723 307.895L317.358 375.068C332.638 383.944 344.987 405.466 344.94 423.137L261.03 471.285C261.077 453.613 248.728 432.092 233.448 423.216L117.813 356.043C104.814 348.491 94.308 330.182 94.348 315.148Z" fill="url(#paint2_linear_38_307)"/>
<path opacity="0.8" d="M344.939 423.138L261.03 471.286C261.032 470.51 261.002 469.725 260.957 468.936L260.964 468.934L344.867 420.795C344.911 421.581 344.941 422.364 344.939 423.138Z" fill="#453C9E"/>
<g opacity="0.32">
<path d="M223.433 387.034L204.427 397.939L206.256 399.001L225.261 388.096L223.433 387.034Z" fill="#453C9E"/>
<path d="M233.18 381.441L226.337 385.368L228.165 386.43L235.008 382.503L233.18 381.441Z" fill="#453C9E"/>
<path d="M240.733 377.107L236.083 379.775L237.912 380.837L242.561 378.169L240.733 377.107Z" fill="#453C9E"/>
<path d="M210.606 389.571L200.251 395.513L202.079 396.575L212.435 390.633L210.606 389.571Z" fill="#453C9E"/>
<path d="M226.201 380.623L213.51 387.905L215.338 388.967L228.029 381.685L226.201 380.623Z" fill="#453C9E"/>
<path d="M233.754 376.288L229.104 378.956L230.933 380.019L235.583 377.351L233.754 376.288Z" fill="#453C9E"/>
<path d="M240.942 372.164L236.292 374.832L238.121 375.894L242.771 373.226L240.942 372.164Z" fill="#453C9E"/>
<path d="M203.567 388.787L196.074 393.086L197.902 394.149L205.395 389.849L203.567 388.787Z" fill="#453C9E"/>
<path d="M209.031 385.652L206.47 387.121L208.299 388.183L210.86 386.714L209.031 385.652Z" fill="#453C9E"/>
<path d="M216.585 381.317L211.935 383.986L213.763 385.048L218.413 382.38L216.585 381.317Z" fill="#453C9E"/>
<path d="M219.553 374.791L191.897 390.66L193.726 391.722L221.381 375.853L219.553 374.791Z" fill="#453C9E"/>
<path d="M229.299 369.199L222.456 373.125L224.285 374.187L231.128 370.261L229.299 369.199Z" fill="#453C9E"/>
<path d="M195.213 383.935L187.72 388.234L189.549 389.296L197.042 384.997L195.213 383.935Z" fill="#453C9E"/>
<path d="M212.797 373.845L198.117 382.269L199.945 383.331L214.626 374.907L212.797 373.845Z" fill="#453C9E"/>
<path d="M220.351 369.51L215.701 372.179L217.529 373.241L222.179 370.573L220.351 369.51Z" fill="#453C9E"/>
<path d="M198.874 377.011L183.544 385.808L185.372 386.87L200.703 378.073L198.874 377.011Z" fill="#453C9E"/>
<path d="M212.864 368.983L201.778 375.345L203.606 376.407L214.693 370.045L212.864 368.983Z" fill="#453C9E"/>
<path d="M223.261 363.018L215.768 367.317L217.597 368.379L225.089 364.08L223.261 363.018Z" fill="#453C9E"/>
<path d="M184.545 380.41L179.367 383.381L181.196 384.443L186.373 381.472L184.545 380.41Z" fill="#453C9E"/>
<path d="M194.291 374.818L187.448 378.744L189.277 379.806L196.12 375.88L194.291 374.818Z" fill="#453C9E"/>
<path d="M208.221 366.825L197.195 373.152L199.023 374.214L210.049 367.887L208.221 366.825Z" fill="#453C9E"/>
<path d="M191.051 371.854L175.19 380.955L177.019 382.017L192.879 372.916L191.051 371.854Z" fill="#453C9E"/>
<path d="M208.816 361.661L193.955 370.188L195.783 371.25L210.644 362.723L208.816 361.661Z" fill="#453C9E"/>
<path d="M216.369 357.327L211.719 359.995L213.548 361.057L218.198 358.389L216.369 357.327Z" fill="#453C9E"/>
<path d="M223.618 353.167L218.968 355.835L220.797 356.897L225.447 354.229L223.618 353.167Z" fill="#453C9E"/>
<path d="M180.516 373.076L171.014 378.529L172.842 379.591L182.345 374.138L180.516 373.076Z" fill="#453C9E"/>
<path d="M261.983 364.913L275.161 357.352L276.99 358.414L263.812 365.976L261.983 364.913Z" fill="#453C9E"/>
<path d="M260.629 360.868L270.985 354.926L272.813 355.988L262.457 361.93L260.629 360.868Z" fill="#453C9E"/>
<path d="M259.315 356.799L266.808 352.499L268.636 353.561L261.144 357.861L259.315 356.799Z" fill="#453C9E"/>
<path d="M251.733 356.327L262.631 350.073L264.46 351.135L253.561 357.389L251.733 356.327Z" fill="#453C9E"/>
<path d="M250.962 351.946L258.455 347.647L260.283 348.709L252.79 353.008L250.962 351.946Z" fill="#453C9E"/>
<path d="M244.775 350.673L254.278 345.22L256.106 346.282L246.603 351.735L244.775 350.673Z" fill="#453C9E"/>
<path d="M244.923 345.765L250.101 342.794L251.93 343.856L246.752 346.827L244.923 345.765Z" fill="#453C9E"/>
<path d="M235.891 346.125L245.924 340.368L247.753 341.43L237.72 347.187L235.891 346.125Z" fill="#453C9E"/>
<path d="M232.245 343.394L241.748 337.941L243.576 339.004L234.073 344.456L232.245 343.394Z" fill="#453C9E"/>
<path d="M187.461 369.091L183.42 371.41L185.249 372.472L189.289 370.153L187.461 369.091Z" fill="#453C9E"/>
<path d="M199.461 362.206L190.364 367.425L192.193 368.487L201.289 363.268L199.461 362.206Z" fill="#453C9E"/>
<path d="M188.1 343.59L172.75 352.398L174.578 353.46L189.929 344.652L188.1 343.59Z" fill="#453C9E"/>
<path d="M198.614 337.557L192.567 341.026L194.396 342.088L200.442 338.619L198.614 337.557Z" fill="#453C9E"/>
</g>
<path opacity="0.3" d="M276.828 370.228C278.905 376.163 264.903 386.464 245.553 393.236C226.203 400.008 208.833 400.686 206.756 394.75C204.679 388.815 218.681 378.514 238.031 371.742C257.381 364.971 274.751 364.293 276.828 370.228Z" fill="#0F054C"/>
<path d="M227.836 348.631L228.078 342.526L229.498 338.951L230.399 341.91L227.836 348.631Z" fill="#DD821F"/>
<path d="M291.917 349.797L292.157 343.805C292.157 343.805 287.091 348.861 287.088 348.984C287.085 349.107 291.917 349.797 291.917 349.797Z" fill="#FFD85A"/>
<path d="M259.437 367.565C241.744 367.141 227.704 358.146 228.078 342.526C228.452 326.906 243.098 314.587 260.792 315.011C278.485 315.435 292.525 328.44 292.151 344.06C291.777 359.68 277.13 367.989 259.437 367.565Z" fill="#FFD85A"/>
<path d="M291.887 350.162C292.26 334.542 278.22 321.538 260.526 321.115C242.833 320.692 228.187 333.011 227.814 348.63C227.44 364.25 241.481 377.255 259.174 377.678C276.867 378.101 291.513 365.781 291.887 350.162Z" fill="#FFD85A"/>
<path d="M237.513 329.021C231.702 333.989 228.021 340.905 227.836 348.631C227.462 364.251 241.502 377.257 259.195 377.68C267.947 377.89 275.95 374.978 281.853 370.094L237.513 329.021Z" fill="#DD821F"/>
<path d="M290.458 350.128C290.815 335.206 277.401 322.781 260.497 322.377C243.593 321.973 229.601 333.742 229.244 348.665C228.888 363.587 242.301 376.012 259.205 376.416C276.109 376.821 290.101 365.051 290.458 350.128Z" fill="#F9BF30"/>
<path d="M284.424 349.985C284.711 338.005 273.942 328.031 260.372 327.706C246.802 327.382 235.57 336.83 235.283 348.81C234.997 360.79 245.765 370.765 259.335 371.089C272.905 371.414 284.138 361.965 284.424 349.985Z" fill="#F2B42A"/>
<path d="M284.443 349.987C284.455 349.491 284.441 348.999 284.415 348.51C283.285 359.78 272.431 368.45 259.423 368.139C246.415 367.827 235.989 358.648 235.399 347.336C235.35 347.823 235.313 348.314 235.301 348.81C235.014 360.79 245.782 370.765 259.352 371.09C272.923 371.415 284.156 361.967 284.443 349.987Z" fill="#FFD85A"/>
<path d="M264.586 351.227L259.547 346.559C254.694 347.66 245.649 349.721 238.423 351.417C240.219 356.823 244.6 361.282 250.324 363.65L264.586 351.227Z" fill="#FFD85A"/>
<path d="M256.655 365.303C257.456 365.401 258.27 365.464 259.096 365.484C265.028 365.626 270.457 363.681 274.498 360.41L266.272 352.79L256.655 365.303Z" fill="#FFD85A"/>
<path d="M254.141 341.551L244.647 332.757C241.454 335.547 238.6 338.621 237.83 342.731L254.141 341.551Z" fill="#FFD85A"/>
<path d="M259.106 330.301C272.676 330.626 283.444 340.601 283.157 352.581C283.099 355.009 282.584 357.329 281.699 359.489C283.376 356.642 284.36 353.42 284.443 349.987C284.73 338.007 273.962 328.032 260.392 327.707C249.572 327.448 240.244 333.405 236.76 341.902C240.935 334.814 249.424 330.069 259.106 330.301Z" fill="#DD821F"/>
<path d="M228.078 342.526C228.022 344.85 227.806 346.532 228.353 348.707C229.059 346.417 230.589 339.561 230.589 339.561L233.028 334.114L235.06 332.44L238.499 329.934L238.783 322.077C232.381 327.09 228.274 334.354 228.078 342.526Z" fill="#DD821F"/>
<path d="M290.082 341.725L290.216 340.115C290.222 339.884 290.402 339.701 290.618 339.706L290.739 339.709C290.956 339.714 291.127 339.906 291.121 340.136L290.986 341.746C290.98 341.977 290.8 342.16 290.584 342.155L290.463 342.152C290.248 342.147 290.077 341.956 290.082 341.725Z" fill="#DD821F"/>
<path d="M287.267 335.556L287.432 332.662C287.438 332.399 287.643 332.191 287.89 332.197L288.171 332.204C288.418 332.21 288.613 332.428 288.606 332.691L288.441 335.585C288.435 335.848 288.23 336.056 287.983 336.05L287.702 336.043C287.455 336.037 287.26 335.819 287.267 335.556Z" fill="#DD821F"/>
<path d="M283.365 330.177L283.528 327.371C283.535 327.074 283.767 326.838 284.046 326.845L284.536 326.857C284.815 326.864 285.035 327.11 285.028 327.407L284.865 330.213C284.858 330.51 284.626 330.746 284.347 330.739L283.857 330.727C283.578 330.721 283.358 330.474 283.365 330.177Z" fill="#DD821F"/>
<path d="M277.523 325.833L277.7 322.433C277.707 322.136 277.939 321.9 278.218 321.907L278.708 321.919C278.987 321.926 279.207 322.172 279.2 322.469L279.023 325.869C279.016 326.166 278.784 326.402 278.505 326.395L278.015 326.383C277.736 326.377 277.516 326.131 277.523 325.833Z" fill="#DD821F"/>
<path d="M271.646 322.981L271.836 319.064C271.843 318.767 272.075 318.531 272.354 318.538L272.844 318.55C273.123 318.557 273.343 318.803 273.336 319.1L273.146 323.017C273.139 323.314 272.907 323.55 272.628 323.543L272.138 323.531C271.859 323.524 271.639 323.278 271.646 322.981Z" fill="#DD821F"/>
<path d="M265.742 321.241L265.928 317.477C265.935 317.18 266.167 316.945 266.446 316.951L266.936 316.963C267.215 316.97 267.435 317.216 267.428 317.513L267.242 321.277C267.235 321.574 267.003 321.81 266.724 321.803L266.234 321.791C265.955 321.784 265.735 321.538 265.742 321.241Z" fill="#DD821F"/>
<path d="M259.81 320.647L259.998 316.825C260.005 316.528 260.237 316.292 260.516 316.299L261.006 316.311C261.285 316.318 261.505 316.564 261.498 316.861L261.31 320.683C261.303 320.98 261.071 321.216 260.792 321.209L260.302 321.197C260.024 321.19 259.803 320.944 259.81 320.647Z" fill="#DD821F"/>
<path d="M253.862 320.773L254.044 317.191C254.051 316.894 254.283 316.658 254.562 316.665L255.052 316.677C255.331 316.684 255.551 316.93 255.544 317.227L255.362 320.809C255.355 321.106 255.123 321.342 254.844 321.335L254.354 321.323C254.075 321.317 253.855 321.071 253.862 320.773Z" fill="#DD821F"/>
<path d="M247.885 322.075L248.064 318.607C248.071 318.31 248.303 318.074 248.582 318.081L249.072 318.093C249.351 318.1 249.571 318.346 249.564 318.643L249.385 322.111C249.378 322.408 249.146 322.644 248.867 322.637L248.377 322.625C248.098 322.619 247.878 322.372 247.885 322.075Z" fill="#DD821F"/>
<path d="M241.869 324.995L242.055 321.241C242.062 320.944 242.294 320.708 242.573 320.715L243.063 320.727C243.342 320.734 243.562 320.98 243.555 321.277L243.369 325.031C243.362 325.328 243.13 325.564 242.851 325.557L242.361 325.545C242.082 325.538 241.862 325.292 241.869 324.995Z" fill="#DD821F"/>
<path opacity="0.5" d="M162.227 448.968C164.05 454.179 151.757 463.222 134.77 469.168C117.782 475.113 102.533 475.708 100.709 470.497C98.885 465.286 111.179 456.242 128.166 450.297C145.153 444.352 160.403 443.757 162.227 448.968Z" fill="#0F054C"/>
<path d="M119.215 430.007L119.428 424.647L120.674 421.509L121.465 424.106L119.215 430.007Z" fill="#DD821F"/>
<path d="M175.474 431.03L175.684 425.77C175.684 425.77 171.236 430.209 171.234 430.317C171.232 430.425 175.474 431.03 175.474 431.03Z" fill="#FFD85A"/>
<path d="M146.959 446.63C131.426 446.258 119.1 438.36 119.428 424.647C119.756 410.934 132.615 400.119 148.148 400.491C163.681 400.863 176.008 412.281 175.679 425.994C175.351 439.707 162.492 447.002 146.959 446.63Z" fill="#FFD85A"/>
<path d="M175.451 431.348C175.779 417.635 163.453 406.217 147.92 405.846C132.386 405.474 119.528 416.29 119.2 430.003C118.873 443.716 131.199 455.134 146.732 455.505C162.266 455.876 175.124 445.061 175.451 431.348Z" fill="#FFD85A"/>
<path d="M127.711 412.79C122.609 417.152 119.378 423.223 119.215 430.007C118.887 443.72 131.213 455.138 146.746 455.51C154.43 455.694 161.456 453.138 166.638 448.85L127.711 412.79Z" fill="#DD821F"/>
<path d="M174.192 431.314C174.505 418.213 162.729 407.304 147.888 406.949C133.048 406.595 120.764 416.928 120.45 430.029C120.137 443.13 131.914 454.038 146.754 454.393C161.595 454.748 173.879 444.415 174.192 431.314Z" fill="#F9BF30"/>
<path d="M168.896 431.19C169.147 420.672 159.693 411.915 147.779 411.631C135.866 411.346 126.004 419.641 125.753 430.158C125.501 440.675 134.955 449.432 146.869 449.717C158.782 450.002 168.644 441.707 168.896 431.19Z" fill="#F2B42A"/>
<path d="M168.912 431.197C168.922 430.761 168.91 430.33 168.888 429.9C167.895 439.795 158.367 447.406 146.947 447.133C135.527 446.86 126.374 438.8 125.856 428.87C125.813 429.298 125.78 429.728 125.77 430.164C125.518 440.682 134.972 449.439 146.886 449.724C158.798 450.009 168.66 441.715 168.912 431.197Z" fill="#FFD85A"/>
<path d="M151.479 432.286L147.055 428.187C142.795 429.154 134.854 430.963 128.51 432.452C130.087 437.198 133.933 441.113 138.959 443.192L151.479 432.286Z" fill="#FFD85A"/>
<path d="M144.516 444.644C145.219 444.73 145.934 444.785 146.659 444.802C151.867 444.927 156.633 443.219 160.181 440.347L152.959 433.657L144.516 444.644Z" fill="#FFD85A"/>
<path d="M142.309 423.792L133.974 416.071C131.171 418.52 128.665 421.219 127.989 424.827L142.309 423.792Z" fill="#FFD85A"/>
<path d="M146.668 413.914C158.582 414.199 168.035 422.957 167.783 433.474C167.732 435.605 167.28 437.643 166.503 439.539C167.975 437.04 168.839 434.211 168.912 431.197C169.164 420.679 159.71 411.922 147.797 411.637C138.298 411.41 130.109 416.64 127.05 424.099C130.715 417.877 138.168 413.711 146.668 413.914Z" fill="#DD821F"/>
<path d="M119.428 424.647C119.379 426.687 119.189 428.164 119.669 430.074C120.288 428.063 121.632 422.045 121.632 422.045L123.774 417.262L125.558 415.792L128.577 413.592L128.827 406.694C123.206 411.095 119.599 417.473 119.428 424.647Z" fill="#DD821F"/>
<path d="M173.863 423.944L173.981 422.531C173.986 422.328 174.144 422.168 174.334 422.172L174.44 422.175C174.63 422.18 174.78 422.347 174.775 422.55L174.657 423.963C174.652 424.166 174.494 424.326 174.304 424.322L174.198 424.319C174.008 424.315 173.858 424.147 173.863 423.944Z" fill="#DD821F"/>
<path d="M171.391 418.528L171.536 415.988C171.542 415.757 171.722 415.574 171.938 415.579L172.185 415.585C172.402 415.59 172.573 415.782 172.567 416.012L172.422 418.552C172.417 418.783 172.237 418.966 172.02 418.961L171.773 418.955C171.557 418.95 171.386 418.759 171.391 418.528Z" fill="#DD821F"/>
<path d="M167.966 413.806L168.109 411.343C168.115 411.082 168.319 410.875 168.564 410.881L168.994 410.891C169.239 410.897 169.432 411.113 169.426 411.374L169.283 413.837C169.277 414.098 169.073 414.305 168.829 414.299L168.398 414.289C168.153 414.283 167.96 414.066 167.966 413.806Z" fill="#DD821F"/>
<path d="M162.837 409.992L162.993 407.007C162.999 406.746 163.203 406.539 163.448 406.545L163.878 406.555C164.123 406.561 164.316 406.777 164.31 407.038L164.154 410.023C164.148 410.284 163.944 410.491 163.7 410.485L163.269 410.475C163.024 410.469 162.831 410.253 162.837 409.992Z" fill="#DD821F"/>
<path d="M157.677 407.488L157.844 404.049C157.85 403.788 158.054 403.582 158.298 403.587L158.729 403.597C158.974 403.603 159.167 403.819 159.161 404.08L158.994 407.519C158.988 407.78 158.784 407.986 158.54 407.981L158.109 407.971C157.864 407.965 157.671 407.749 157.677 407.488Z" fill="#DD821F"/>
<path d="M152.494 405.96L152.657 402.655C152.663 402.394 152.867 402.188 153.111 402.193L153.542 402.203C153.787 402.209 153.98 402.425 153.974 402.686L153.811 405.991C153.805 406.252 153.601 406.458 153.357 406.453L152.926 406.443C152.681 406.437 152.488 406.221 152.494 405.96Z" fill="#DD821F"/>
<path d="M147.286 405.439L147.451 402.084C147.457 401.823 147.661 401.616 147.905 401.622L148.336 401.632C148.581 401.638 148.774 401.854 148.768 402.115L148.603 405.47C148.597 405.731 148.393 405.938 148.149 405.932L147.718 405.922C147.473 405.916 147.28 405.7 147.286 405.439Z" fill="#DD821F"/>
<path d="M142.064 405.55L142.224 402.406C142.23 402.145 142.434 401.938 142.678 401.944L143.109 401.954C143.354 401.96 143.547 402.176 143.541 402.437L143.381 405.582C143.375 405.843 143.171 406.049 142.927 406.044L142.496 406.034C142.251 406.027 142.058 405.811 142.064 405.55Z" fill="#DD821F"/>
<path d="M136.817 406.693L136.974 403.648C136.98 403.387 137.184 403.18 137.428 403.186L137.859 403.196C138.104 403.202 138.297 403.418 138.291 403.679L138.134 406.724C138.128 406.985 137.924 407.191 137.679 407.186L137.249 407.176C137.004 407.17 136.81 406.954 136.817 406.693Z" fill="#DD821F"/>
<path d="M131.535 409.256L131.698 405.96C131.704 405.699 131.908 405.492 132.152 405.498L132.583 405.508C132.828 405.514 133.021 405.73 133.015 405.991L132.852 409.287C132.846 409.548 132.642 409.755 132.398 409.749L131.968 409.739C131.722 409.733 131.529 409.517 131.535 409.256Z" fill="#DD821F"/>
<defs>
<linearGradient id="paint0_linear_38_307" x1="233.09" y1="453.904" x2="349.451" y2="456.151" gradientUnits="userSpaceOnUse">
<stop stop-color="#5761D7"/>
<stop offset="0.0398" stop-color="#5C66D9"/>
<stop offset="0.0867" stop-color="#6A73DF"/>
<stop offset="0.1372" stop-color="#8289E8"/>
<stop offset="0.1899" stop-color="#A3A7F5"/>
<stop offset="0.2237" stop-color="#BCBEFF"/>
</linearGradient>
<linearGradient id="paint1_linear_38_307" x1="267.644" y1="393.696" x2="312.33" y2="463.151" gradientUnits="userSpaceOnUse">
<stop stop-color="#C0BFF6"/>
<stop offset="0.2938" stop-color="#C5C4F7"/>
<stop offset="0.6399" stop-color="#D3D2F9"/>
<stop offset="1" stop-color="#E9E9FD"/>
</linearGradient>
<linearGradient id="paint2_linear_38_307" x1="161.189" y1="268.528" x2="282.563" y2="475.33" gradientUnits="userSpaceOnUse">
<stop stop-color="#C0BFF6"/>
<stop offset="0.1172" stop-color="#D0CFF9"/>
<stop offset="0.2627" stop-color="#E9E9FD"/>
<stop offset="0.5143" stop-color="#C0BFF6"/>
<stop offset="0.6217" stop-color="#D0CFF9"/>
<stop offset="0.755" stop-color="#E9E9FD"/>
<stop offset="1" stop-color="#C0BFF6"/>
</linearGradient>
</defs>
</svg>
