<svg width="27" height="27" viewBox="0 0 27 27" fill="none" xmlns="http://www.w3.org/2000/svg">
<path d="M12.5666 1.02105C10.01 1.29414 7.59177 2.31923 5.61775 3.96668C3.64373 5.61413 2.20257 7.80995 1.47651 10.2765C0.750444 12.743 0.772092 15.3694 1.53871 17.8236C2.30533 20.2778 3.7825 22.4496 5.7834 24.0643C7.78431 25.679 10.2191 26.664 12.7799 26.895C15.3406 27.1259 17.9124 26.5923 20.1699 25.3616C22.4273 24.1309 24.2692 22.2584 25.4625 19.981C26.6558 17.7035 27.147 15.1233 26.8739 12.5667C26.5042 9.13988 24.7901 5.99969 22.1078 3.83516C19.4256 1.67063 15.9942 0.65857 12.5666 1.02105ZM15.1158 24.8853C12.9525 25.1164 10.7693 24.7008 8.84218 23.691C6.91509 22.6813 5.33069 21.1228 4.28935 19.2127C3.248 17.3025 2.79647 15.1264 2.99187 12.9596C3.18726 10.7928 4.0208 8.73257 5.38707 7.0395C6.75335 5.34642 8.59099 4.09652 10.6676 3.44784C12.7443 2.79916 14.9666 2.78084 17.0537 3.3952C19.1407 4.00956 20.9987 5.22901 22.3927 6.89933C23.7867 8.56966 24.6541 10.6158 24.8852 12.7791C25.1917 15.6793 24.3352 18.5827 22.5037 20.8523C20.6723 23.1218 18.0153 24.5722 15.1158 24.8853ZM18.978 16.7214C19.0803 16.8039 19.1652 16.9057 19.2281 17.0211C19.291 17.1365 19.3306 17.2631 19.3445 17.3937C19.3585 17.5244 19.3466 17.6565 19.3095 17.7826C19.2724 17.9086 19.2108 18.0261 19.1283 18.1284C19.0458 18.2306 18.9439 18.3156 18.8286 18.3785C18.7132 18.4414 18.5866 18.481 18.4559 18.4949C18.3253 18.5089 18.1932 18.497 18.0671 18.4598C17.9411 18.4227 17.8236 18.3612 17.7213 18.2787L10.7959 12.6889L11.1768 16.2548C11.205 16.5186 11.1272 16.7827 10.9607 16.9891C10.7941 17.1955 10.5524 17.3272 10.2887 17.3554C10.025 17.3836 9.76087 17.3058 9.55447 17.1393C9.34808 16.9727 9.2163 16.731 9.18813 16.4673L8.55083 10.5012C8.52266 10.2375 8.60041 9.97339 8.76696 9.767C8.93352 9.5606 9.17524 9.42882 9.43896 9.40065L15.405 8.76336C15.6687 8.73519 15.9328 8.81293 16.1392 8.97949C16.3456 9.14604 16.4774 9.38777 16.5056 9.65148C16.5337 9.9152 16.456 10.1793 16.2894 10.3857C16.1229 10.5921 15.8812 10.7239 15.6174 10.752L12.0515 11.133L18.978 16.7214Z" fill="#023701"/>
</svg>
