<svg width="21" height="22" viewBox="0 0 21 22" fill="none" xmlns="http://www.w3.org/2000/svg">
<path fill-rule="evenodd" clip-rule="evenodd" d="M11.0835 7.69585L18.246 5.61914L16.4632 12.8604L14.2392 10.7254L10.6518 14.4622C10.5301 14.5891 10.3618 14.6608 10.1859 14.6608C10.0101 14.6608 9.84183 14.5891 9.72005 14.4622L7.08594 11.7184L3.21183 15.7539C2.96481 16.0112 2.55598 16.0196 2.29867 15.7726C2.04136 15.5255 2.03302 15.1167 2.28004 14.8594L6.62004 10.3386C6.74183 10.2117 6.91008 10.14 7.08594 10.14C7.2618 10.14 7.43005 10.2117 7.55183 10.3386L10.1859 13.0824L13.3075 9.83085L11.0835 7.69585Z" fill="#4F0101" fill-opacity="0.5"/>
</svg>
