<svg width="179" height="169" viewBox="0 0 179 169" fill="none" xmlns="http://www.w3.org/2000/svg">
<path d="M14.5578 39.4899C15.694 39.4899 16.6142 38.5876 16.6142 37.4742V23.6984C16.7413 23.6565 16.8684 23.6212 16.9914 23.5626C17.0274 23.5459 18.9588 22.6403 22.0761 21.7946C23.0683 22.4758 24.3289 22.7801 25.6133 22.5371C30.329 21.6414 34.9053 21.6294 39.6163 22.5084C40.8864 22.7435 42.1335 22.4452 43.1189 21.7753C46.2259 22.6196 48.1505 23.5286 48.2076 23.5559C48.3232 23.6119 48.4421 23.6451 48.5603 23.6851L48.5603 37.4748C48.5603 38.5876 49.4812 39.4906 50.6175 39.4906C51.753 39.4906 52.6739 38.5883 52.6739 37.4748V21.0155C52.6739 20.9189 52.6589 20.8277 52.6453 20.7344C52.6025 19.6656 51.9963 18.6501 50.9498 18.14C50.7724 18.0541 48.3735 16.9041 44.5446 15.8839C43.9038 14.7339 42.7628 13.8635 41.3465 13.5985C38.4501 13.0584 35.5414 12.7841 32.7008 12.7841C29.7942 12.7841 26.8162 13.0704 23.8512 13.6331C22.4505 13.8988 21.3217 14.7585 20.6816 15.8932C16.8595 16.9081 14.4538 18.0468 14.2757 18.1327C13.3012 18.6015 12.6984 19.5065 12.5795 20.4894C12.5333 20.6579 12.5 20.8323 12.5 21.0148V37.4748C12.5007 38.5876 13.4215 39.4899 14.5578 39.4899ZM45.6347 38.4824L45.6354 25.7741C45.2263 25.6182 44.7288 25.4371 44.1328 25.2433C42.5378 26.0344 40.6737 26.3035 38.8918 25.9738C34.5995 25.1708 30.5594 25.1807 26.2487 26.0005C24.4506 26.3421 22.5898 26.0731 20.9914 25.284C20.4423 25.4638 19.9768 25.6309 19.5861 25.7781L19.5793 38.483C19.5793 40.7538 17.8626 42.6217 15.637 42.95V49.0944C15.637 50.2071 16.496 50.7325 17.6934 51.1101C17.6934 51.1101 24.2134 52.958 32.4785 52.958C40.7451 52.958 47.5192 51.1101 47.5192 51.1101C48.6867 50.7545 49.5763 50.2078 49.5763 49.0944V42.95C47.3513 42.6217 45.6347 40.7531 45.6347 38.4824Z" fill="#C5E2FD"/>
<path d="M71.4708 39.4899C72.6071 39.4899 73.5272 38.5876 73.5272 37.4742V23.6984C73.6543 23.6565 73.7814 23.6212 73.9044 23.5626C73.9404 23.5459 75.8718 22.6403 78.9891 21.7946C79.9813 22.4758 81.2419 22.7801 82.5264 22.5371C87.242 21.6414 91.8184 21.6294 96.5293 22.5084C97.7994 22.7435 99.0465 22.4452 100.032 21.7753C103.139 22.6196 105.064 23.5286 105.121 23.5559C105.236 23.6119 105.355 23.6451 105.473 23.6851V37.4748C105.473 38.5876 106.394 39.4906 107.53 39.4906C108.666 39.4906 109.587 38.5883 109.587 37.4748L109.587 21.0155C109.587 20.9189 109.572 20.8277 109.558 20.7344C109.516 19.6656 108.909 18.6501 107.863 18.14C107.685 18.0541 105.286 16.9041 101.458 15.8839C100.817 14.7339 99.6758 13.8635 98.2595 13.5985C95.3631 13.0584 92.4545 12.7841 89.6138 12.7841C86.7072 12.7841 83.7292 13.0704 80.7642 13.6331C79.3635 13.8988 78.2348 14.7585 77.5946 15.8932C73.7726 16.9081 71.3668 18.0468 71.1888 18.1327C70.2142 18.6015 69.6114 19.5065 69.4925 20.4894C69.4463 20.6579 69.413 20.8323 69.413 21.0148V37.4748C69.4137 38.5876 70.3345 39.4899 71.4708 39.4899ZM102.548 38.4824L102.548 25.7741C102.139 25.6182 101.642 25.4371 101.046 25.2433C99.4508 26.0344 97.5867 26.3035 95.8048 25.9738C91.5126 25.1708 87.4724 25.1807 83.1618 26.0005C81.3636 26.3421 79.5029 26.0731 77.9045 25.284C77.3554 25.4638 76.8898 25.6309 76.4991 25.7781L76.4923 38.483C76.4923 40.7538 74.7756 42.6217 72.55 42.95V49.0944C72.55 50.2071 73.409 50.7325 74.6064 51.1101C74.6064 51.1101 81.1264 52.958 89.3916 52.958C97.6581 52.958 104.432 51.1101 104.432 51.1101C105.6 50.7545 106.489 50.2078 106.489 49.0944V42.95C104.264 42.6217 102.548 40.7531 102.548 38.4824Z" fill="#C5E2FD"/>
<path d="M128.384 39.4899C129.52 39.4899 130.44 38.5876 130.44 37.4742V23.6984C130.567 23.6565 130.694 23.6212 130.817 23.5626C130.854 23.5459 132.785 22.6403 135.902 21.7946C136.894 22.4758 138.155 22.7801 139.439 22.5371C144.155 21.6414 148.731 21.6294 153.442 22.5084C154.713 22.7435 155.96 22.4452 156.945 21.7753C160.052 22.6196 161.977 23.5286 162.034 23.5559C162.149 23.6119 162.268 23.6451 162.386 23.6851V37.4748C162.386 38.5876 163.307 39.4906 164.444 39.4906C165.579 39.4906 166.5 38.5883 166.5 37.4748V21.0155C166.5 20.9189 166.485 20.8277 166.471 20.7344C166.429 19.6656 165.822 18.6501 164.776 18.14C164.599 18.0541 162.2 16.9041 158.371 15.8839C157.73 14.7339 156.589 13.8635 155.173 13.5985C152.276 13.0584 149.368 12.7841 146.527 12.7841C143.62 12.7841 140.642 13.0704 137.677 13.6331C136.277 13.8988 135.148 14.7585 134.508 15.8932C130.686 16.9081 128.28 18.0468 128.102 18.1327C127.127 18.6015 126.525 19.5065 126.406 20.4894C126.359 20.6579 126.326 20.8323 126.326 21.0148V37.4748C126.327 38.5876 127.248 39.4899 128.384 39.4899ZM159.461 38.4824L159.461 25.7741C159.052 25.6182 158.555 25.4371 157.959 25.2433C156.364 26.0344 154.5 26.3035 152.718 25.9738C148.426 25.1708 144.385 25.1807 140.075 26.0005C138.277 26.3421 136.416 26.0731 134.818 25.284C134.268 25.4638 133.803 25.6309 133.412 25.7781L133.405 38.483C133.405 40.7538 131.689 42.6217 129.463 42.95V49.0944C129.463 50.2071 130.322 50.7325 131.52 51.1101C131.52 51.1101 138.039 52.958 146.305 52.958C154.571 52.958 161.345 51.1101 161.345 51.1101C162.513 50.7545 163.402 50.2078 163.402 49.0944V42.95C161.177 42.6217 159.461 40.7531 159.461 38.4824Z" fill="#C5E2FD"/>
<path d="M14.5578 91.3815C15.694 91.3815 16.6142 90.4792 16.6142 89.3658V75.59C16.7413 75.5481 16.8684 75.5128 16.9914 75.4542C17.0274 75.4375 18.9588 74.5319 22.0761 73.6862C23.0683 74.3674 24.3289 74.6717 25.6133 74.4287C30.329 73.533 34.9053 73.521 39.6163 74.4C40.8864 74.6351 42.1335 74.3368 43.1189 73.6669C46.2259 74.5112 48.1505 75.4202 48.2076 75.4475C48.3232 75.5035 48.4421 75.5367 48.5603 75.5767L48.5603 89.3664C48.5603 90.4792 49.4812 91.3822 50.6175 91.3822C51.753 91.3822 52.6739 90.4799 52.6739 89.3664V72.9071C52.6739 72.8105 52.6589 72.7193 52.6453 72.626C52.6025 71.5572 51.9963 70.5417 50.9498 70.0316C50.7724 69.9457 48.3735 68.7957 44.5446 67.7755C43.9038 66.6255 42.7628 65.7551 41.3465 65.4901C38.4501 64.9501 35.5414 64.6757 32.7008 64.6757C29.7942 64.6757 26.8162 64.962 23.8512 65.5247C22.4505 65.7904 21.3217 66.6501 20.6816 67.7848C16.8595 68.7997 14.4538 69.9384 14.2757 70.0243C13.3012 70.4931 12.6984 71.3981 12.5795 72.381C12.5333 72.5495 12.5 72.7239 12.5 72.9064V89.3664C12.5007 90.4792 13.4215 91.3815 14.5578 91.3815ZM45.6347 90.374L45.6354 77.6657C45.2263 77.5098 44.7288 77.3287 44.1328 77.1349C42.5378 77.926 40.6737 78.1951 38.8918 77.8654C34.5995 77.0624 30.5594 77.0723 26.2487 77.8921C24.4506 78.2337 22.5898 77.9647 20.9914 77.1756C20.4423 77.3554 19.9768 77.5225 19.5861 77.6697L19.5793 90.3746C19.5793 92.6454 17.8626 94.5133 15.637 94.8416V100.986C15.637 102.099 16.496 102.624 17.6934 103.002C17.6934 103.002 24.2134 104.85 32.4785 104.85C40.7451 104.85 47.5192 103.002 47.5192 103.002C48.6867 102.646 49.5763 102.099 49.5763 100.986V94.8416C47.3513 94.5133 45.6347 92.6447 45.6347 90.374Z" fill="#C5E2FD"/>
<path d="M71.4708 91.3815C72.6071 91.3815 73.5272 90.4792 73.5272 89.3658V75.59C73.6543 75.5481 73.7814 75.5128 73.9044 75.4542C73.9404 75.4375 75.8718 74.5319 78.9891 73.6862C79.9813 74.3674 81.2419 74.6717 82.5264 74.4287C87.242 73.533 91.8184 73.521 96.5293 74.4C97.7994 74.6351 99.0465 74.3368 100.032 73.6669C103.139 74.5112 105.064 75.4202 105.121 75.4475C105.236 75.5035 105.355 75.5367 105.473 75.5767V89.3664C105.473 90.4792 106.394 91.3822 107.53 91.3822C108.666 91.3822 109.587 90.4799 109.587 89.3664L109.587 72.9071C109.587 72.8105 109.572 72.7193 109.558 72.626C109.516 71.5572 108.909 70.5417 107.863 70.0316C107.685 69.9457 105.286 68.7957 101.458 67.7755C100.817 66.6255 99.6758 65.7551 98.2595 65.4901C95.3631 64.9501 92.4545 64.6757 89.6138 64.6757C86.7072 64.6757 83.7292 64.962 80.7642 65.5247C79.3635 65.7904 78.2348 66.6501 77.5946 67.7848C73.7726 68.7997 71.3668 69.9384 71.1888 70.0243C70.2142 70.4931 69.6114 71.3981 69.4925 72.381C69.4463 72.5495 69.413 72.7239 69.413 72.9064V89.3664C69.4137 90.4792 70.3345 91.3815 71.4708 91.3815ZM102.548 90.374L102.548 77.6657C102.139 77.5098 101.642 77.3287 101.046 77.1349C99.4508 77.926 97.5867 78.1951 95.8048 77.8654C91.5126 77.0624 87.4724 77.0723 83.1618 77.8921C81.3636 78.2337 79.5029 77.9647 77.9045 77.1756C77.3554 77.3554 76.8898 77.5225 76.4991 77.6697L76.4923 90.3746C76.4923 92.6454 74.7756 94.5133 72.55 94.8416V100.986C72.55 102.099 73.409 102.624 74.6064 103.002C74.6064 103.002 81.1264 104.85 89.3916 104.85C97.6581 104.85 104.432 103.002 104.432 103.002C105.6 102.646 106.489 102.099 106.489 100.986V94.8416C104.264 94.5133 102.548 92.6447 102.548 90.374Z" fill="#C5E2FD"/>
<path d="M128.384 91.3815C129.52 91.3815 130.44 90.4792 130.44 89.3658V75.59C130.567 75.5481 130.694 75.5128 130.817 75.4542C130.854 75.4375 132.785 74.5319 135.902 73.6862C136.894 74.3674 138.155 74.6717 139.439 74.4287C144.155 73.533 148.731 73.521 153.442 74.4C154.713 74.6351 155.96 74.3368 156.945 73.6669C160.052 74.5112 161.977 75.4202 162.034 75.4475C162.149 75.5035 162.268 75.5367 162.386 75.5767V89.3664C162.386 90.4792 163.307 91.3822 164.444 91.3822C165.579 91.3822 166.5 90.4799 166.5 89.3664V72.9071C166.5 72.8105 166.485 72.7193 166.471 72.626C166.429 71.5572 165.822 70.5417 164.776 70.0316C164.599 69.9457 162.2 68.7957 158.371 67.7755C157.73 66.6255 156.589 65.7551 155.173 65.4901C152.276 64.9501 149.368 64.6757 146.527 64.6757C143.62 64.6757 140.642 64.962 137.677 65.5247C136.277 65.7904 135.148 66.6501 134.508 67.7848C130.686 68.7997 128.28 69.9384 128.102 70.0243C127.127 70.4931 126.525 71.3981 126.406 72.381C126.359 72.5495 126.326 72.7239 126.326 72.9064V89.3664C126.327 90.4792 127.248 91.3815 128.384 91.3815ZM159.461 90.374L159.461 77.6657C159.052 77.5098 158.555 77.3287 157.959 77.1349C156.364 77.926 154.5 78.1951 152.718 77.8654C148.426 77.0624 144.385 77.0723 140.075 77.8921C138.277 78.2337 136.416 77.9647 134.818 77.1756C134.268 77.3554 133.803 77.5225 133.412 77.6697L133.405 90.3746C133.405 92.6454 131.689 94.5133 129.463 94.8416V100.986C129.463 102.099 130.322 102.624 131.52 103.002C131.52 103.002 138.039 104.85 146.305 104.85C154.571 104.85 161.345 103.002 161.345 103.002C162.513 102.646 163.402 102.099 163.402 100.986V94.8416C161.177 94.5133 159.461 92.6447 159.461 90.374Z" fill="#C5E2FD"/>
<path d="M14.5578 143.272C15.694 143.272 16.6142 142.37 16.6142 141.256V127.481C16.7413 127.439 16.8684 127.403 16.9914 127.345C17.0274 127.328 18.9588 126.423 22.0761 125.577C23.0683 126.258 24.3289 126.562 25.6133 126.319C30.329 125.424 34.9053 125.412 39.6163 126.291C40.8864 126.526 42.1335 126.227 43.1189 125.557C46.2259 126.402 48.1505 127.311 48.2076 127.338C48.3232 127.394 48.4421 127.427 48.5603 127.467L48.5603 141.257C48.5603 142.37 49.4812 143.273 50.6175 143.273C51.753 143.273 52.6739 142.37 52.6739 141.257V124.798C52.6739 124.701 52.6589 124.61 52.6453 124.517C52.6025 123.448 51.9963 122.432 50.9498 121.922C50.7724 121.836 48.3735 120.686 44.5446 119.666C43.9038 118.516 42.7628 117.646 41.3465 117.381C38.4501 116.841 35.5414 116.566 32.7008 116.566C29.7942 116.566 26.8162 116.853 23.8512 117.415C22.4505 117.681 21.3217 118.541 20.6816 119.675C16.8595 120.69 14.4538 121.829 14.2757 121.915C13.3012 122.384 12.6984 123.289 12.5795 124.272C12.5333 124.44 12.5 124.615 12.5 124.797V141.257C12.5007 142.37 13.4215 143.272 14.5578 143.272ZM45.6347 142.265L45.6354 129.556C45.2263 129.4 44.7288 129.219 44.1328 129.026C42.5378 129.817 40.6737 130.086 38.8918 129.756C34.5995 128.953 30.5594 128.963 26.2487 129.783C24.4506 130.124 22.5898 129.855 20.9914 129.066C20.4423 129.246 19.9768 129.413 19.5861 129.56L19.5793 142.265C19.5793 144.536 17.8626 146.404 15.637 146.732V152.877C15.637 153.989 16.496 154.515 17.6934 154.892C17.6934 154.892 24.2134 156.74 32.4785 156.74C40.7451 156.74 47.5192 154.892 47.5192 154.892C48.6867 154.537 49.5763 153.99 49.5763 152.877V146.732C47.3513 146.404 45.6347 144.535 45.6347 142.265Z" fill="#C5E2FD"/>
<path d="M128.384 143.272C129.52 143.272 130.44 142.37 130.44 141.256V127.481C130.567 127.439 130.694 127.403 130.817 127.345C130.854 127.328 132.785 126.423 135.902 125.577C136.894 126.258 138.155 126.562 139.439 126.319C144.155 125.424 148.731 125.412 153.442 126.291C154.713 126.526 155.96 126.227 156.945 125.557C160.052 126.402 161.977 127.311 162.034 127.338C162.149 127.394 162.268 127.427 162.386 127.467V141.257C162.386 142.37 163.307 143.273 164.444 143.273C165.579 143.273 166.5 142.37 166.5 141.257V124.798C166.5 124.701 166.485 124.61 166.471 124.517C166.429 123.448 165.822 122.432 164.776 121.922C164.599 121.836 162.2 120.686 158.371 119.666C157.73 118.516 156.589 117.646 155.173 117.381C152.276 116.841 149.368 116.566 146.527 116.566C143.62 116.566 140.642 116.853 137.677 117.415C136.277 117.681 135.148 118.541 134.508 119.675C130.686 120.69 128.28 121.829 128.102 121.915C127.127 122.384 126.525 123.289 126.406 124.272C126.359 124.44 126.326 124.615 126.326 124.797V141.257C126.327 142.37 127.248 143.272 128.384 143.272ZM159.461 142.265L159.461 129.556C159.052 129.4 158.555 129.219 157.959 129.026C156.364 129.817 154.5 130.086 152.718 129.756C148.426 128.953 144.385 128.963 140.075 129.783C138.277 130.124 136.416 129.855 134.818 129.066C134.268 129.246 133.803 129.413 133.412 129.56L133.405 142.265C133.405 144.536 131.689 146.404 129.463 146.732V152.877C129.463 153.989 130.322 154.515 131.52 154.892C131.52 154.892 138.039 156.74 146.305 156.74C154.571 156.74 161.345 154.892 161.345 154.892C162.513 154.537 163.402 153.99 163.402 152.877V146.732C161.177 146.404 159.461 144.535 159.461 142.265Z" fill="#C5E2FD"/>
</svg>
