<svg width="24" height="25" viewBox="0 0 24 25" fill="none" xmlns="http://www.w3.org/2000/svg">
<path d="M19.06 19.4106L16.92 15.1406L14.78 19.4106" stroke="#292D32" stroke-width="1.5" stroke-linecap="round" stroke-linejoin="round"/>
<path d="M15.17 18.6504H18.69" stroke="#292D32" stroke-width="1.5" stroke-linecap="round" stroke-linejoin="round"/>
<path d="M16.92 22.7401C14.12 22.7401 11.84 20.47 11.84 17.66C11.84 14.86 14.11 12.5801 16.92 12.5801C19.72 12.5801 22 14.85 22 17.66C22 20.47 19.73 22.7401 16.92 22.7401Z" stroke="#292D32" stroke-width="1.5" stroke-linecap="round" stroke-linejoin="round"/>
<path d="M5.02 2.74023H8.94C11.01 2.74023 12.01 3.74025 11.96 5.76025V9.68024C12.01 11.7502 11.01 12.7503 8.94 12.7003H5.02C3 12.7403 2 11.7402 2 9.67023V5.75024C2 3.74024 3 2.74023 5.02 2.74023Z" stroke="#292D32" stroke-width="1.5" stroke-linecap="round" stroke-linejoin="round"/>
<path d="M9.01001 6.58984H4.95001" stroke="#292D32" stroke-width="1.5" stroke-linecap="round" stroke-linejoin="round"/>
<path d="M6.96997 5.91016V6.59015" stroke="#292D32" stroke-width="1.5" stroke-linecap="round" stroke-linejoin="round"/>
<path d="M7.99001 6.58008C7.99001 8.33008 6.62 9.75006 4.94 9.75006" stroke="#292D32" stroke-width="1.5" stroke-linecap="round" stroke-linejoin="round"/>
<path d="M9.01003 9.75024C8.28003 9.75024 7.62003 9.36023 7.16003 8.74023" stroke="#292D32" stroke-width="1.5" stroke-linecap="round" stroke-linejoin="round"/>
<path d="M2 15.7402C2 19.6102 5.13 22.7402 9 22.7402L7.95 20.9902" stroke="#292D32" stroke-width="1.5" stroke-linecap="round" stroke-linejoin="round"/>
<path d="M22 9.74023C22 5.87023 18.87 2.74023 15 2.74023L16.05 4.49023" stroke="#292D32" stroke-width="1.5" stroke-linecap="round" stroke-linejoin="round"/>
</svg>
