<svg width="46" height="28" viewBox="0 0 46 28" fill="none" xmlns="http://www.w3.org/2000/svg">
<path d="M29.4165 2.95435H17.1252V24.6928H29.4165V2.95435Z" fill="#D13D41"/>
<path d="M28.6359 13.8266C28.6359 9.40985 26.5289 5.49223 23.2903 2.95729C25.6704 1.11377 28.6749 0 31.9525 0C39.7178 0 46 6.18348 46 13.8266C46 21.4696 39.7178 27.6533 31.9527 27.6533C28.675 27.6533 25.6706 26.5395 23.2903 24.6958C26.5289 22.1993 28.6359 18.2434 28.6359 13.8266Z" fill="#FFB3AD"/>
<path d="M0.542105 13.8276C0.542105 21.4706 6.82427 27.6542 14.5894 27.6542C17.8671 27.6542 20.8715 26.5405 23.2518 24.6968C19.9741 22.162 17.906 18.2444 17.906 13.8276C17.906 9.41083 20.0132 5.49321 23.2518 2.95826C20.8717 1.11475 17.8671 0.000976562 14.5894 0.000976562C6.82427 0.000976562 0.541929 6.22295 0.541929 13.8276H0.542105Z" fill="#FFB3AD"/>
</svg>
