<svg width="24" height="25" viewBox="0 0 24 25" fill="none" xmlns="http://www.w3.org/2000/svg">
<path d="M22 10.7402V13.7402C22 17.7402 20 19.7402 16 19.7402H15.5C15.19 19.7402 14.89 19.8902 14.7 20.1402L13.2 22.1402C12.54 23.0202 11.46 23.0202 10.8 22.1402L9.3 20.1402C9.14 19.9202 8.77 19.7402 8.5 19.7402H8C4 19.7402 2 18.7402 2 13.7402V8.74023C2 4.74023 4 2.74023 8 2.74023H14" stroke="#292D32" stroke-width="1.5" stroke-miterlimit="10" stroke-linecap="round" stroke-linejoin="round"/>
<path d="M19.5 7.74023C20.8807 7.74023 22 6.62095 22 5.24023C22 3.85952 20.8807 2.74023 19.5 2.74023C18.1193 2.74023 17 3.85952 17 5.24023C17 6.62095 18.1193 7.74023 19.5 7.74023Z" stroke="#292D32" stroke-width="1.5" stroke-linecap="round" stroke-linejoin="round"/>
<path d="M15.9965 11.7402H16.0054" stroke="#292D32" stroke-width="2" stroke-linecap="round" stroke-linejoin="round"/>
<path d="M11.9955 11.7402H12.0045" stroke="#292D32" stroke-width="2" stroke-linecap="round" stroke-linejoin="round"/>
<path d="M7.99451 11.7402H8.00349" stroke="#292D32" stroke-width="2" stroke-linecap="round" stroke-linejoin="round"/>
</svg>
