<svg width="44" height="45" viewBox="0 0 44 45" fill="none" xmlns="http://www.w3.org/2000/svg">
<rect y="0.784668" width="44" height="44" rx="22" fill="white"/>
<path d="M18.6719 25.1145C18.6719 26.4045 19.6619 27.4445 20.8919 27.4445H23.4019C24.4719 27.4445 25.3419 26.5345 25.3419 25.4145C25.3419 24.1945 24.8119 23.7645 24.0219 23.4845L19.9919 22.0845C19.2019 21.8045 18.6719 21.3745 18.6719 20.1545C18.6719 19.0345 19.5419 18.1245 20.6119 18.1245H23.1219C24.3519 18.1245 25.3419 19.1645 25.3419 20.4545" stroke="#D13D41" stroke-width="1.5" stroke-linecap="round" stroke-linejoin="round"/>
<path d="M22 16.7847V28.7847" stroke="#D13D41" stroke-width="1.5" stroke-linecap="round" stroke-linejoin="round"/>
<path d="M25 32.7847H19C14 32.7847 12 30.7847 12 25.7847V19.7847C12 14.7847 14 12.7847 19 12.7847H25C30 12.7847 32 14.7847 32 19.7847V25.7847C32 30.7847 30 32.7847 25 32.7847Z" stroke="#D13D41" stroke-width="1.5" stroke-linecap="round" stroke-linejoin="round"/>
</svg>
