<svg width="56" height="56" viewBox="0 0 56 56" fill="none" xmlns="http://www.w3.org/2000/svg">
<rect width="56" height="56" rx="28" fill="white"/>
<path d="M28.02 18.9099C24.71 18.9099 22.02 21.5999 22.02 24.9099V27.7999C22.02 28.4099 21.76 29.3399 21.45 29.8599L20.3 31.7699C19.59 32.9499 20.08 34.2599 21.38 34.6999C25.69 36.1399 30.34 36.1399 34.65 34.6999C35.86 34.2999 36.39 32.8699 35.73 31.7699L34.58 29.8599C34.28 29.3399 34.02 28.4099 34.02 27.7999V24.9099C34.02 21.6099 31.32 18.9099 28.02 18.9099Z" stroke="#292D32" stroke-width="1.5" stroke-miterlimit="10" stroke-linecap="round"/>
<path d="M29.87 19.1999C29.56 19.1099 29.24 19.0399 28.91 18.9999C27.95 18.8799 27.03 18.9499 26.17 19.1999C26.46 18.4599 27.18 17.9399 28.02 17.9399C28.86 17.9399 29.58 18.4599 29.87 19.1999Z" stroke="#292D32" stroke-width="1.5" stroke-miterlimit="10" stroke-linecap="round" stroke-linejoin="round"/>
<path d="M31.02 35.0601C31.02 36.7101 29.67 38.0601 28.02 38.0601C27.2 38.0601 26.44 37.7201 25.9 37.1801C25.36 36.6401 25.02 35.8801 25.02 35.0601" stroke="#292D32" stroke-width="1.5" stroke-miterlimit="10"/>
</svg>
