<svg width="56" height="56" viewBox="0 0 56 56" fill="none" xmlns="http://www.w3.org/2000/svg">
<rect width="56" height="56" rx="28" fill="#D13D41"/>
<path d="M28.02 18.9102C24.71 18.9102 22.02 21.6002 22.02 24.9102V27.8002C22.02 28.4102 21.76 29.3402 21.45 29.8602L20.3 31.7702C19.59 32.9502 20.08 34.2602 21.38 34.7002C25.69 36.1402 30.34 36.1402 34.65 34.7002C35.86 34.3002 36.39 32.8702 35.73 31.7702L34.58 29.8602C34.28 29.3402 34.02 28.4102 34.02 27.8002V24.9102C34.02 21.6102 31.32 18.9102 28.02 18.9102Z" stroke="white" stroke-width="1.5" stroke-miterlimit="10" stroke-linecap="round"/>
<path d="M29.87 19.2004C29.56 19.1104 29.24 19.0404 28.91 19.0004C27.95 18.8804 27.03 18.9504 26.17 19.2004C26.46 18.4604 27.18 17.9404 28.02 17.9404C28.86 17.9404 29.58 18.4604 29.87 19.2004Z" stroke="white" stroke-width="1.5" stroke-miterlimit="10" stroke-linecap="round" stroke-linejoin="round"/>
<path d="M31.02 35.0596C31.02 36.7096 29.67 38.0596 28.02 38.0596C27.2 38.0596 26.44 37.7196 25.9 37.1796C25.36 36.6396 25.02 35.8796 25.02 35.0596" stroke="white" stroke-width="1.5" stroke-miterlimit="10"/>
</svg>
