<svg width="24" height="25" viewBox="0 0 24 25" fill="none" xmlns="http://www.w3.org/2000/svg">
<path d="M21.6488 20.6149C20.2209 18.1464 18.0206 16.3764 15.4528 15.5374C16.723 14.7812 17.7098 13.6291 18.2618 12.2578C18.8137 10.8865 18.9003 9.37198 18.5082 7.94675C18.1161 6.52152 17.267 5.26441 16.0912 4.36847C14.9155 3.47253 13.4782 2.9873 12 2.9873C10.5218 2.9873 9.08451 3.47253 7.90878 4.36847C6.73306 5.26441 5.88394 6.52152 5.49183 7.94675C5.09971 9.37198 5.18629 10.8865 5.73825 12.2578C6.29021 13.6291 7.27704 14.7812 8.5472 15.5374C5.97938 16.3755 3.77907 18.1455 2.35126 20.6149C2.2989 20.7002 2.26417 20.7952 2.24912 20.8942C2.23407 20.9933 2.239 21.0943 2.26363 21.1914C2.28825 21.2884 2.33207 21.3796 2.3925 21.4595C2.45293 21.5394 2.52874 21.6063 2.61547 21.6564C2.7022 21.7065 2.79808 21.7387 2.89745 21.7511C2.99683 21.7636 3.0977 21.756 3.19409 21.7288C3.29049 21.7016 3.38047 21.6554 3.45872 21.5929C3.53697 21.5304 3.6019 21.4529 3.6497 21.3649C5.41595 18.3124 8.53782 16.4899 12 16.4899C15.4622 16.4899 18.5841 18.3124 20.3503 21.3649C20.3981 21.4529 20.4631 21.5304 20.5413 21.5929C20.6196 21.6554 20.7095 21.7016 20.8059 21.7288C20.9023 21.756 21.0032 21.7636 21.1026 21.7511C21.2019 21.7387 21.2978 21.7065 21.3845 21.6564C21.4713 21.6063 21.5471 21.5394 21.6075 21.4595C21.6679 21.3796 21.7118 21.2884 21.7364 21.1914C21.761 21.0943 21.766 20.9933 21.7509 20.8942C21.7358 20.7952 21.7011 20.7002 21.6488 20.6149ZM6.75001 9.73986C6.75001 8.7015 7.05792 7.68647 7.63479 6.82311C8.21167 5.95975 9.03161 5.28685 9.99092 4.88949C10.9502 4.49213 12.0058 4.38816 13.0242 4.59073C14.0426 4.7933 14.9781 5.29332 15.7123 6.02754C16.4465 6.76177 16.9466 7.69723 17.1491 8.71563C17.3517 9.73403 17.2477 10.7896 16.8504 11.7489C16.453 12.7083 15.7801 13.5282 14.9168 14.1051C14.0534 14.6819 13.0384 14.9899 12 14.9899C10.6081 14.9884 9.27359 14.4348 8.28934 13.4505C7.3051 12.4663 6.7515 11.1318 6.75001 9.73986Z" fill="#292D32"/>
</svg>
