<svg width="44" height="45" viewBox="0 0 44 45" fill="none" xmlns="http://www.w3.org/2000/svg">
<rect y="0.784668" width="44" height="44" rx="22" fill="white"/>
<path d="M22 16.0347C21.4067 16.0347 20.8266 16.2106 20.3333 16.5403C19.8399 16.8699 19.4554 17.3384 19.2284 17.8866C19.0013 18.4348 18.9419 19.038 19.0576 19.6199C19.1734 20.2019 19.4591 20.7364 19.8787 21.156C20.2982 21.5755 20.8328 21.8613 21.4147 21.977C21.9967 22.0928 22.5999 22.0334 23.1481 21.8063C23.6962 21.5792 24.1648 21.1947 24.4944 20.7014C24.8241 20.208 25 19.628 25 19.0347C25 18.239 24.6839 17.476 24.1213 16.9133C23.5587 16.3507 22.7956 16.0347 22 16.0347ZM22 20.5347C21.7033 20.5347 21.4133 20.4467 21.1666 20.2819C20.92 20.1171 20.7277 19.8828 20.6142 19.6087C20.5006 19.3346 20.4709 19.033 20.5288 18.742C20.5867 18.4511 20.7296 18.1838 20.9393 17.974C21.1491 17.7642 21.4164 17.6214 21.7074 17.5635C21.9983 17.5056 22.2999 17.5353 22.574 17.6488C22.8481 17.7624 23.0824 17.9546 23.2472 18.2013C23.412 18.448 23.5 18.738 23.5 19.0347C23.5 19.4325 23.342 19.814 23.0607 20.0953C22.7794 20.3766 22.3978 20.5347 22 20.5347ZM22 23.5347C21.4067 23.5347 20.8266 23.7106 20.3333 24.0403C19.8399 24.3699 19.4554 24.8384 19.2284 25.3866C19.0013 25.9348 18.9419 26.538 19.0576 27.1199C19.1734 27.7019 19.4591 28.2364 19.8787 28.656C20.2982 29.0755 20.8328 29.3613 21.4147 29.477C21.9967 29.5928 22.5999 29.5334 23.1481 29.3063C23.6962 29.0792 24.1648 28.6947 24.4944 28.2014C24.8241 27.708 25 27.128 25 26.5347C25 25.739 24.6839 24.976 24.1213 24.4133C23.5587 23.8507 22.7956 23.5347 22 23.5347ZM22 28.0347C21.7033 28.0347 21.4133 27.9467 21.1666 27.7819C20.92 27.6171 20.7277 27.3828 20.6142 27.1087C20.5006 26.8346 20.4709 26.533 20.5288 26.242C20.5867 25.9511 20.7296 25.6838 20.9393 25.474C21.1491 25.2642 21.4164 25.1214 21.7074 25.0635C21.9983 25.0056 22.2999 25.0353 22.574 25.1488C22.8481 25.2624 23.0824 25.4546 23.2472 25.7013C23.412 25.948 23.5 26.238 23.5 26.5347C23.5 26.9325 23.342 27.314 23.0607 27.5953C22.7794 27.8766 22.3978 28.0347 22 28.0347ZM30.25 24.2847H28.75V18.2847H30.25C30.4489 18.2847 30.6397 18.2057 30.7803 18.065C30.921 17.9243 31 17.7336 31 17.5347C31 17.3358 30.921 17.145 30.7803 17.0043C30.6397 16.8637 30.4489 16.7847 30.25 16.7847H28.75V14.5347C28.75 14.1368 28.592 13.7553 28.3107 13.474C28.0294 13.1927 27.6478 13.0347 27.25 13.0347H16.75C16.3522 13.0347 15.9706 13.1927 15.6893 13.474C15.408 13.7553 15.25 14.1368 15.25 14.5347V16.7847H13.75C13.5511 16.7847 13.3603 16.8637 13.2197 17.0043C13.079 17.145 13 17.3358 13 17.5347C13 17.7336 13.079 17.9243 13.2197 18.065C13.3603 18.2057 13.5511 18.2847 13.75 18.2847H15.25V24.2847H13.75C13.5511 24.2847 13.3603 24.3637 13.2197 24.5043C13.079 24.645 13 24.8358 13 25.0347C13 25.2336 13.079 25.4243 13.2197 25.565C13.3603 25.7057 13.5511 25.7847 13.75 25.7847H15.25V31.0347C15.25 31.4325 15.408 31.814 15.6893 32.0953C15.9706 32.3766 16.3522 32.5347 16.75 32.5347H27.25C27.6478 32.5347 28.0294 32.3766 28.3107 32.0953C28.592 31.814 28.75 31.4325 28.75 31.0347V25.7847H30.25C30.4489 25.7847 30.6397 25.7057 30.7803 25.565C30.921 25.4243 31 25.2336 31 25.0347C31 24.8358 30.921 24.645 30.7803 24.5043C30.6397 24.3637 30.4489 24.2847 30.25 24.2847ZM27.25 31.0347H16.75V14.5347H27.25V31.0347Z" fill="#D13D41"/>
</svg>
